<svg xmlns="http://www.w3.org/2000/svg" xmlns:xlink="http://www.w3.org/1999/xlink" viewBox="0 0 5000 3000"><defs><style>.cls-1{fill:#1d0025;}.cls-2{fill:#ffb27f;}.cls-3{fill:url(#linear-gradient);}.cls-4,.cls-5,.cls-6{fill:#fff;}.cls-4{opacity:0.1;}.cls-5{opacity:0.2;}.cls-6{opacity:0.14;}</style><linearGradient id="linear-gradient" x1="2500" y1="1916.44" x2="2500" y2="-8.86" gradientUnits="userSpaceOnUse"><stop offset="0" stop-color="#fe975d"/><stop offset="0.01" stop-color="#fe9960"/><stop offset="0.14" stop-color="#feb788"/><stop offset="0.25" stop-color="#ffcda5"/><stop offset="0.35" stop-color="#ffdab7"/><stop offset="0.43" stop-color="#ffdfbd"/><stop offset="0.66" stop-color="#ffcfa7"/><stop offset="1" stop-color="#ffb27f"/></linearGradient></defs><g id="Layer_2" data-name="Layer 2"><g id="Vrstva_1" data-name="Vrstva 1"><g id="layer_8"><rect class="cls-1" y="2452.5" width="1016.75" height="547.5"/><rect class="cls-1" width="5000" height="2452.5"/><path class="cls-1" d="M3024.8,842.39c-57-3.2-123.6-36.83-176.75-40s-36.6-6.4-99.13-6.4-86-18.28-58.16-27.53,130.8-5.69,178.21-10,112-15.11,80.12-18.23-70-7.39-111.42-11.66-69.25,2.85-115,.71,94-8.12,80.11-17.22-41.69-14-89.93-13.66-68.66-8.37-131.6-13.3-104.64-14.88-156.14-17.72-227.93,5.51-297.82-9.81,88.28-40.92,167.37-36.12,213.44-8,166.49-27.22-157.3-30.24-234.54-27.93-115.87-5.69-156.33,10.32-57,27.21-121.39,32-108.51,1.6-167.37,4.8-103-22.41-274-20.81c-145.73,1.37-143-22.93-102.73-31.31C1499.46,551,1647,528.11,1686,526.48c49.86-2.07,47.41-.05,94,0s92.38-.76,109.54-.05,68.67-5.7,96.46-10.57,42.51-2.24,81.75-.45,70.3-2.5,113.62-.37,49-5.68,62.95-7.82,105.45-27,158.59-24.91,167.57-7.82,219.89-22.76-11.44-15.66-71.11-25.85-77.66-23.26-164.31-26.81-154.71,13.16-199.46,5.16-71.12-12.28-96.26-9.61-77.25-3.2-127.52-3.73-71.12-2.14-96.26,4.26,17.17,9.61-30,13.88-49,4.27-105.45,5.87-74.19-.53-101.78,0-70.51.54-53.34,6.41,44.15,10.13,55.79,10.67,43.53,2.13,3.07,5.33-87.87,24.16-143,24.16H1336.73c-140.79,8.32-4.72,29.39-62,29.39-9.32,0-18.75.2-28.42.62-.24,0-263.15,8.51-447,42.11S540,555.82,475.67,555.82s-169.2-6.22-226.22,10.49S5.82,584.64,5.82,584.64v88.05l.4,201.71s155-33.61,280-32,237.25,2,327.37,10.58,134.26,4.18,220.7,0,95.65-6.1,215.19-18.74,106.81-19.06,196.86-27.07,154.43,27.58,338.35,45.81,167.36,35.85,301.63,21.43,228.06-8,285.07-9.6,309,43.22,421.17,30.42,165.54-17.62,309-20.82S3081.81,845.59,3024.8,842.39Zm-1756-246.16c-40.46,10.67-109.13-4.27-153.27,1.06s-160.63,18.15-128.75,25.62,54,3.2,121.39,8.54,112.81,3.2,93.19,5.34-58.86,10.67-144.69,16S909.52,674,847,683.65,728,672,675.31,667.74s-38-6.4-110.35,2.13-237.88-8.87-164.31-22,85.83-2.84,199.87,0c26.08.65,13.48-17.45,110.35-17.45s159.41-16,233-23.48,68.67-21.34,182.7-25.61S1309.26,585.56,1268.79,596.23Z"/><path class="cls-1" d="M2027.93,882.92c-35.63-4.89-7.79-14.23,71.38-24.72s73.42-34.25,150.13-36.3,136.78-.53,198.07,1,44.19-21.61,126.74-26.62A2120.93,2120.93,0,0,1,2805.13,795c67.32,3.44,70.7,8.93,185.86-8.56s111-30.51,164.46-20.73,100.71,42.46,181.74,42.38,203.09-9.09,151.87,6.52-36.43,36.34-102.45,31.46-116-10.42-182.49-7.84,31.86,22.84,104.06,27,94.06,8.32,145.91,3.06,90.92-1.27,63.14,12.41-50.92,31.93-102.9,39.32-115.42.38-184.32,2.77-129.19,5.14-173.94,15-115.11,16.44-181.92,4-126.33-23.88-175.42-24.24-134.35,31.24-198.34,33.84-101.65-4.38-165.33-7.12-.8-7.68,12.88-10.75,13.42-20.17-11.07-21.22-29.39-1.27-84.56-2.57-108.14,1.77-133.86.66,118.78-16.26,207-13.55,22.69-10.47-30.86-18.8-106.87,1.14-147.53,3.66S2062,887.58,2027.93,882.92Z"/><path class="cls-1" d="M578.45,628.25c-22.14,6.42-42.92,13.87-114,0s-92-18.15-142.24-21.35-79.7-7.47-111.58-8.54-87.06,15.55-104.23,17.92-56.4-.84-60.08,5.57,31.88,17.07,69.89,17.07,78.48-5.34,139.79,0,40.47,13.87,1.22,22.42-65,10.67-125.06,13.87-85.84-6.11-126.3-2.52V527.92s101.77-6.41,154.49,0,118.94-9.61,169.22-12.82,27-22.41,6.13-24.53-99.32-10.69-43.53-22.42,144.08-6.41,200.48,0,44.15,12.8,109.13,7.47,158.18-6.4,134.88,3.2-76,11.75-111.58,12.81-38,5.34-96.87,14.94-57.63,25.62-45.37,26.69,46.6,10.66,96.87,12.8,29.27,5.67,115.26,2.14,201.1-20.28,174.12-8.54-8.58,16.14-68.66,28.89-104.23,5.26-130,21.27,99.32,5.34,169.21-10.67,141-23.48,127.53-16-27,15-66.22,27.75-36.78,25.61-85.83,38.43-65,12.8-118.94,12.8S615.23,617.58,578.45,628.25Z"/><path class="cls-1" d="M1713.11,439.82c-105.48,6.76-110.54-10.33-184.57-3.47s-134.14.24-89.11-4.87,98.33-6.79,135.63-14.8,106.27-15.28,143.25-17.34-36.89-1.48-73.83-1.39-30.27-6.07,17.68-12.24,112.31-2.6,157.33-7.25,74.9-12.34,119.11-13.47,297.33,6.88,405.54,28.95,408.38,6.5,547.71-5,321.89-15.16,419.53-10.38,193.1,10.11,251.7,12.39,234.66-1.48,193.26,3.64-80.73,13.79-165.56,18.09-308.58,3.63-358.55,3.87-189.15,5.87-302.38,16.71,80.41-.85,202,.26,297.26,15,221.2,15.95S3135.66,456,3066,462.91s-148.47,30.2-243.83,21.34S2629.05,473.54,2600.82,473s-7,17.55,16.84,21.53,27.59,26.44-87.23,13.68-199.19-27.32-255.62-29.56S2166,484.88,2115.92,491s-137,5.67-217.21-1.73S1898.06,428,1713.11,439.82Z"/><path class="cls-1" d="M2192.36,587c-26.26,2.42-56.14-24.09-79.78-25.76s-60.4-4.21-89.88-1-47.52,6.6-82.63,4.09-30.93-9.22-60.39-7.59-33.5-1.26-57.3,4.89-3.34,5.49-33.62,7.38-33.54,1.15-57.26,2.32-13.9.55-50.72,2.3-123.11,5.07-152.3,2.61-16.63,4.63-.18,12,90.66,21,93,27.42-41.6-6.15,1.45,13.54,79.94,12.24,122.45,12,79.48-12.66,109.69-9.49,60.32,12.12,74.2,13.65,15.45,5.84,42.47,2.91,41.84-10.58,52.58-18.29,27.16-13.23,61.51-13.57,50.71-2.3,76.07-2.74,18.7,6.61,60.53-2.9,52.5-12.24,98.27-11.75,23.78-4.72.11-7.83S2254.58,581.24,2192.36,587Z"/><path class="cls-1" d="M633.91,210.06c-4.91,7.61-20,21.79-67.08,31.38s-76.1,7-80.11,13.07S437.66,265,438.66,287.63s87.11,46.19,140.18,46.19,91.11-10.45,101.12,0,36,19.18,67.09,23.53,38.05,7.85,80.1,6.11,86.1-2.62,101.12-4.37,34.05-7,53.07-7.84,20,1.75,55.07,1.75,54.06,1.74,83.1,0,26,8.71,57.07-4.37,23-17.42,73.09-21.79,126.16-6.09,108.13-19.17-56.06-14.35-75.08-20.68,3-15.05,20-15.05,94.11-8.71-25-19.17-89.11-27-66.08-31.38,70.08-21.79,49-27-46-11.32-67.08-13.07-25,3.49-48.06,5.23-40,2.62-57.54,3.49a233.61,233.61,0,0,1-65.61-5.23c-28-6.1-74.09-5.94-94.12-3.84s-123.47-7.49-28.69-34.07H582.84s34,23.09,61.08,26.58S697,178.69,698,183.92s-12,17.43-33,17.43S639.68,201.12,633.91,210.06Z"/><path class="cls-1" d="M857.23,365.75c-21.52-13-39.23-26.68,31.88-36.29s74.8,0,117.71-9.6,18.39-13.87,66.2-12.81,49-1.06,69.89,8.53,0,22.26,67.44,20.74,87.05,2.75,87.05,9.16-39.23,1.06-84.6,7.46-51.5,18.14-78.47,21.35-29.43-1.07-73.57,0-3.67,6.4-53.94,20.28S877.77,378.18,857.23,365.75Z"/><path class="cls-1" d="M3319,679.21c-47-7.44-49.06-13.83-89.52-13.83s-47.83-3-88.28,0-68.68-.28-90.75-1.34,17.17-14.91,52.73-14.91,23.3-.59,83.38-6.61,111.58-8.42,148.38-8.42,46.58,1.8,90.74,4.2,82.15,3,112.8,0,76-2.4,105.45-4.2,47.83-2.41,68.67,0,2.45,8.42,44.14,10.83,55.18,3,71.12,3,19.62-.6,47.82,2.41,14.72,1.42,47.82,5.52,74.79,5.3,103,5.3,71.13-2.4,41.69,2.41-36.78,15.64-96.87,15.64-85.83,1.2-131.2,5.41-55.18,3.61-103,8.42-14.72,12-98.1,4.81-92-7.22-103-8.41-18.39-1.81-71.13-4.21-77.24,10.22-132.42,10.82-101.77-.6-116.49-1.2-52.72-11.43,3.68-11.43,85.84,4.21,104.23,2.41S3357,685.23,3319,679.21Z"/></g><g id="layer_8-2" data-name="layer_8"><rect class="cls-2" y="2452.5" width="1016.75" height="547.5"/><rect class="cls-3" width="5000" height="2452.5"/><path class="cls-4" d="M3024.8,842.39c-57-3.2-123.6-36.83-176.75-40s-36.6-6.4-99.13-6.4-86-18.28-58.16-27.53,130.8-5.69,178.21-10,112-15.11,80.12-18.23-70-7.39-111.42-11.66-69.25,2.85-115,.71,94-8.12,80.11-17.22-41.69-14-89.93-13.66-68.66-8.37-131.6-13.3-104.64-14.88-156.14-17.72-227.93,5.51-297.82-9.81,88.28-40.92,167.37-36.12,213.44-8,166.49-27.22-157.3-30.24-234.54-27.93-115.87-5.69-156.33,10.32-57,27.21-121.39,32-108.51,1.6-167.37,4.8-103-22.41-274-20.81c-145.73,1.37-143-22.93-102.73-31.31C1499.46,551,1647,528.11,1686,526.48c49.86-2.07,47.41-.05,94,0s92.38-.76,109.54-.05,68.67-5.7,96.46-10.57,42.51-2.24,81.75-.45,70.3-2.5,113.62-.37,49-5.68,62.95-7.82,105.45-27,158.59-24.91,167.57-7.82,219.89-22.76-11.44-15.66-71.11-25.85-77.66-23.26-164.31-26.81-154.71,13.16-199.46,5.16-71.12-12.28-96.26-9.61-77.25-3.2-127.52-3.73-71.12-2.14-96.26,4.26,17.17,9.61-30,13.88-49,4.27-105.45,5.87-74.19-.53-101.78,0-70.51.54-53.34,6.41,44.15,10.13,55.79,10.67,43.53,2.13,3.07,5.33-87.87,24.16-143,24.16H1336.73c-140.79,8.32-4.72,29.39-62,29.39-9.32,0-18.75.2-28.42.62-.24,0-263.15,8.51-447,42.11S540,555.82,475.67,555.82s-169.2-6.22-226.22,10.49S5.82,584.64,5.82,584.64v88.05l.4,201.71s155-33.61,280-32,237.25,2,327.37,10.58,134.26,4.18,220.7,0,95.65-6.1,215.19-18.74,106.81-19.06,196.86-27.07,154.43,27.58,338.35,45.81,167.36,35.85,301.63,21.43,228.06-8,285.07-9.6,309,43.22,421.17,30.42,165.54-17.62,309-20.82S3081.81,845.59,3024.8,842.39Zm-1756-246.16c-40.46,10.67-109.13-4.27-153.27,1.06s-160.63,18.15-128.75,25.62,54,3.2,121.39,8.54,112.81,3.2,93.19,5.34-58.86,10.67-144.69,16S909.52,674,847,683.65,728,672,675.31,667.74s-38-6.4-110.35,2.13-237.88-8.87-164.31-22,85.83-2.84,199.87,0c26.08.65,13.48-17.45,110.35-17.45s159.41-16,233-23.48,68.67-21.34,182.7-25.61S1309.26,585.56,1268.79,596.23Z"/><path class="cls-5" d="M2027.93,882.92c-35.63-4.89-7.79-14.23,71.38-24.72s73.42-34.25,150.13-36.3,136.78-.53,198.07,1,44.19-21.61,126.74-26.62A2120.93,2120.93,0,0,1,2805.13,795c67.32,3.44,70.7,8.93,185.86-8.56s111-30.51,164.46-20.73,100.71,42.46,181.74,42.38,203.09-9.09,151.87,6.52-36.43,36.34-102.45,31.46-116-10.42-182.49-7.84,31.86,22.84,104.06,27,94.06,8.32,145.91,3.06,90.92-1.27,63.14,12.41-50.92,31.93-102.9,39.32-115.42.38-184.32,2.77-129.19,5.14-173.94,15-115.11,16.44-181.92,4-126.33-23.88-175.42-24.24-134.35,31.24-198.34,33.84-101.65-4.38-165.33-7.12-.8-7.68,12.88-10.75,13.42-20.17-11.07-21.22-29.39-1.27-84.56-2.57-108.14,1.77-133.86.66,118.78-16.26,207-13.55,22.69-10.47-30.86-18.8-106.87,1.14-147.53,3.66S2062,887.58,2027.93,882.92Z"/><path class="cls-4" d="M578.45,628.25c-22.14,6.42-42.92,13.87-114,0s-92-18.15-142.24-21.35-79.7-7.47-111.58-8.54-87.06,15.55-104.23,17.92-56.4-.84-60.08,5.57,31.88,17.07,69.89,17.07,78.48-5.34,139.79,0,40.47,13.87,1.22,22.42-65,10.67-125.06,13.87-85.84-6.11-126.3-2.52V527.92s101.77-6.41,154.49,0,118.94-9.61,169.22-12.82,27-22.41,6.13-24.53-99.32-10.69-43.53-22.42,144.08-6.41,200.48,0,44.15,12.8,109.13,7.47,158.18-6.4,134.88,3.2-76,11.75-111.58,12.81-38,5.34-96.87,14.94-57.63,25.62-45.37,26.69,46.6,10.66,96.87,12.8,29.27,5.67,115.26,2.14,201.1-20.28,174.12-8.54-8.58,16.14-68.66,28.89-104.23,5.26-130,21.27,99.32,5.34,169.21-10.67,141-23.48,127.53-16-27,15-66.22,27.75-36.78,25.61-85.83,38.43-65,12.8-118.94,12.8S615.23,617.58,578.45,628.25Z"/><path class="cls-4" d="M1713.11,439.82c-105.48,6.76-110.54-10.33-184.57-3.47s-134.14.24-89.11-4.87,98.33-6.79,135.63-14.8,106.27-15.28,143.25-17.34-36.89-1.48-73.83-1.39-30.27-6.07,17.68-12.24,112.31-2.6,157.33-7.25,74.9-12.34,119.11-13.47,297.33,6.88,405.54,28.95,408.38,6.5,547.71-5,321.89-15.16,419.53-10.38,193.1,10.11,251.7,12.39,234.66-1.48,193.26,3.64-80.73,13.79-165.56,18.09-308.58,3.63-358.55,3.87-189.15,5.87-302.38,16.71,80.41-.85,202,.26,297.26,15,221.2,15.95S3135.66,456,3066,462.91s-148.47,30.2-243.83,21.34S2629.05,473.54,2600.82,473s-7,17.55,16.84,21.53,27.59,26.44-87.23,13.68-199.19-27.32-255.62-29.56S2166,484.88,2115.92,491s-137,5.67-217.21-1.73S1898.06,428,1713.11,439.82Z"/><path class="cls-6" d="M2192.36,587c-26.26,2.42-56.14-24.09-79.78-25.76s-60.4-4.21-89.88-1-47.52,6.6-82.63,4.09-30.93-9.22-60.39-7.59-33.5-1.26-57.3,4.89-3.34,5.49-33.62,7.38-33.54,1.15-57.26,2.32-13.9.55-50.72,2.3-123.11,5.07-152.3,2.61-16.63,4.63-.18,12,90.66,21,93,27.42-41.6-6.15,1.45,13.54,79.94,12.24,122.45,12,79.48-12.66,109.69-9.49,60.32,12.12,74.2,13.65,15.45,5.84,42.47,2.91,41.84-10.58,52.58-18.29,27.16-13.23,61.51-13.57,50.71-2.3,76.07-2.74,18.7,6.61,60.53-2.9,52.5-12.24,98.27-11.75,23.78-4.72.11-7.83S2254.58,581.24,2192.36,587Z"/><path class="cls-4" d="M633.91,210.06c-4.91,7.61-20,21.79-67.08,31.38s-76.1,7-80.11,13.07S437.66,265,438.66,287.63s87.11,46.19,140.18,46.19,91.11-10.45,101.12,0,36,19.18,67.09,23.53,38.05,7.85,80.1,6.11,86.1-2.62,101.12-4.37,34.05-7,53.07-7.84,20,1.75,55.07,1.75,54.06,1.74,83.1,0,26,8.71,57.07-4.37,23-17.42,73.09-21.79,126.16-6.09,108.13-19.17-56.06-14.35-75.08-20.68,3-15.05,20-15.05,94.11-8.71-25-19.17-89.11-27-66.08-31.38,70.08-21.79,49-27-46-11.32-67.08-13.07-25,3.49-48.06,5.23-40,2.62-57.54,3.49a233.61,233.61,0,0,1-65.61-5.23c-28-6.1-74.09-5.94-94.12-3.84s-123.47-7.49-28.69-34.07H582.84s34,23.09,61.08,26.58S697,178.69,698,183.92s-12,17.43-33,17.43S639.68,201.12,633.91,210.06Z"/><path class="cls-4" d="M857.23,365.75c-21.52-13-39.23-26.68,31.88-36.29s74.8,0,117.71-9.6,18.39-13.87,66.2-12.81,49-1.06,69.89,8.53,0,22.26,67.44,20.74,87.05,2.75,87.05,9.16-39.23,1.06-84.6,7.46-51.5,18.14-78.47,21.35-29.43-1.07-73.57,0-3.67,6.4-53.94,20.28S877.77,378.18,857.23,365.75Z"/><path class="cls-6" d="M3319,679.21c-47-7.44-49.06-13.83-89.52-13.83s-47.83-3-88.28,0-68.68-.28-90.75-1.34,17.17-14.91,52.73-14.91,23.3-.59,83.38-6.61,111.58-8.42,148.38-8.42,46.58,1.8,90.74,4.2,82.15,3,112.8,0,76-2.4,105.45-4.2,47.83-2.41,68.67,0,2.45,8.42,44.14,10.83,55.18,3,71.12,3,19.62-.6,47.82,2.41,14.72,1.42,47.82,5.52,74.79,5.3,103,5.3,71.13-2.4,41.69,2.41-36.78,15.64-96.87,15.64-85.83,1.2-131.2,5.41-55.18,3.61-103,8.42-14.72,12-98.1,4.81-92-7.22-103-8.41-18.39-1.81-71.13-4.21-77.24,10.22-132.42,10.82-101.77-.6-116.49-1.2-52.72-11.43,3.68-11.43,85.84,4.21,104.23,2.41S3357,685.23,3319,679.21Z"/></g></g></g></svg>