<svg xmlns="http://www.w3.org/2000/svg" viewBox="0 0 5001.55 1817.21"><defs><style>.cls-1{fill:#1d0025;}.cls-2{fill:#ffcba3;}.cls-3{fill:#ff9c71;}.cls-4{fill:#ffa88a;}</style></defs><g id="Layer_2" data-name="Layer 2"><g id="Vrstva_1" data-name="Vrstva 1"><g id="layer_7"><path class="cls-1" d="M1285.7,519.35s83.21-26.38,107-37.67,67.2-.93,107-36.26,55.47-18.35,103-51.3,93.35-55.56,131.87-74.39,82.11-45.2,133.62-75.33,134.41-82.86,146.46-82.86,52.45-7.53,79.8,0,43.19,26.36,90.74,33.9,82.07,15.06,116.33,15.06,73.87,16.68,73.87,16.68,46.08-9.69,94.37,0,134.2,47.35,140.77,51.12,23.54,22.6,52.7,22.6,101.71,7.53,103.08,0,49.55-18.84,73-33.9,40.16-15.07,49.64-22.6,33.26-18.83,65-33.9,169.74-14.23,229.5-52.31,131.09-60.88,131.09-60.88,54.07,3.57,64.68,0,140.38-45,158.71-48.76,10.4-11.3,77.76-26.37,39.22-18.83,90.94-18.83,51.71-7.53,71.52,0,121.17,22.6,120,26.36.4,3.77,47.18,11.3,42.82,7.54,106.22,22.6,40.53-.74,91.23,27.19,67.07,32.8,109,52.24,47.91,34.6,116,41.61,108.11-6.51,164.25,4.32,32.56.42,102.93,16.63,141.7,39.22,181.32,54.07S5001,324.21,5001,324.21l.51,1310L57.32,1604.08,45.43,526.88S1048.71,609.9,1285.7,519.35Z"/><path class="cls-1" d="M0,371.7s20-16.55,47-35.61S107,305,134,290s58-23.4,114-39,79.9-17.07,118.1-35.34,50.21-37,91.92-69.67,87-39,135-66,87-48,114-60S746,2,755,2s54,37.92,75,41.46S917,71,950,89s75,45,87,57,48,27.66,60,40.83S1111.19,209,1138.63,221s59.24,24,74.84,30,39.6,6,57.6,21,39,27.36,57,45.18,168,13.94,207,18.88,72-1.94,93,0,.77,5.31,75.39-18.88S1773.37,290,1810.25,284s114.89,3,114.89,3,27,9,48,18,27-5.64,57,12.18,24,32.83,69,35.83,48,22.32,87,18.66,56.26-13.42,89.64.46,50,12.15,89.71,32.52,192.69,101.37,246.7,101.37,63-9,81,0,90,5.92,99,22.46,1.93,7.5,26.46,19.53,45.54,42.48,63.54,42.25,15,14.74,57,11.75,30,36,129,0,114-33,123-39,15-3,46.52-15,41.54-46.41,81.52-59.2,40-15.2,67-30.5,36-45,57-48.14,63-38.5,63-38.5,2.15-14.34,17.58,0,18.42,24.61,27.42,33,30,17.36,45,26.36-2,21.6,29,27.3,103.2,30.5,103.2,30.5,4.13,3.43,55.8,39.67,150.84,40.55,150.84,40.55,11.55,4.77,41.34-9.57,87.33-15,102.85-40.09-3.83-28.79,32.59-48.07,18.42-28,87.43-61.13,85.4-13.51,90-38.5,27.26,2.52,77-34.92,81.38-64.14,90.42-79.33,56.67-42.71,56.67-42.71-17.75-15.88,11.09-7.8S4568.4,224,4586.4,233s213,111,255,117,24,0,42,6,117.95,54.16,117.95,54.16V1732.63L0,1678.21Z"/><path class="cls-1" d="M3510.4,365.72c0,.06,5,23.51,13.48,38.49s9.5,17,15.5,20,21,13,21,13,11,7,13,10,10,14,11,18,2,11,6,14,21.88,12,34.94,15,34.06,10,37.06,11a21.91,21.91,0,0,1,10,6c4,4,15,8.19,15,8.19l6,9.81s-1-1,5,6,30.69,18.38,27.78,24.1,20.22,12.9,25.22,14.9,10,3,20,11,18,11,18,11,4-8-8-17-24-16-29-20-12-9.57-19-15.28-11-8.72-13-13.72l-2-5s6.28-11.63,10.14-5.81,12.86,9.81,19.86,17.81,13,19,19,22,14.28,11,22.64,12,26.68,8.49,28.68,9.16,11.71,2.78,12.49,4.57-1.45,6.75,3.37,13,10.28,10,14.05,15.13,5,10.28,18,13,31.28,17.52,40,16.81,24.33,1.55,24.33,1.55l4.86.29s-.43-14.92-5.43-22.24-10-14.65-15-17.48-8,1.16-9-11.84,3-8-1-13-14-15-25.36-17.67h0c-2.17-.39-4.37-.79-6.6-1.22a39.49,39.49,0,0,1-5.65-1.13c-28.68-5.93-60.67-15.7-83.44-31.68-51.67-36.24-55.8-39.67-55.8-39.67s-72.21-24.79-103.2-30.5-14-18.29-29-27.3-36-18-45-26.36-12-18.64-27.42-33c-4.15-3.86-7.33-5.63-9.78-6.17l-3.69.18Z"/><path class="cls-1" d="M2860.63,638.21h-9.81C2858.52,640.2,2860.63,638.21,2860.63,638.21Z"/><path class="cls-1" d="M1757.46,326.45c10.92-.24,40.65,1.52,52.78,9.64s12.14,6.12,26.14,12.12,28.92,6,35.46,12,44.54,9,64.54,11.49,54,.51,70,8.51,54,32,54,32l54,30s-12,2,0,10,1.18,21.58,27.59,32.79,42.8,27.58,71.6,34.4,13.65,6.24,62.23,24.53,84.09,47.37,94.45,51-12.48-16.75,36.82,17.25,51.87,27,76.59,40.51,39.22,14.25,49,19.87,43.75,16,43.75,16h22s-79.29-35.83-97-35.83-19-20.35-37-28.43-50.11-25.93-51.06-34-6.88-16.84-20.94-24.08-19.28-8.53-37.64-19.27-42.36-30.36-58.36-27.54-55-3.73-62,0-68-34.4-68-34.4-6-4.62-6-10.7V458.21c0-12,2-39.16,0-37.58s-18.41-8.42-18.41-8.42c18.41,8.42,38.41,8.42,38.41,8.42l16,15.58,17.19,20s4.81,8,24.81,10,50,12.17,56,8.09,3.65-5.92,22.83,0,89.86,45.1,89.86,45.1,23.82,24.46,38.56,28.64,32.75,18.17,55.75,22.17,29,24.15,49,20.08,32-1.93,48,0S2646,602,2646,602s-45.62-19.83-61.62-27.83-43.5-28.35-51.75-26.17-33.69,15.82-49,0-4.77,8.54-38-28.64-13.25-23.19-33.25-37.19c-17-11.87-22.22-15.11-37.54-19.48-2.75-.79-5.81-1.61-9.33-2.52-23.13-6-48.3-12-48.3-12s-29.6,4-33.22-16-7.61-30,14.39-20,147.25,62.09,147.25,62.09,6.75-.83,20.75,14.54,35,39.67,35,39.67h19.7s27.3,21.35,39.3,19.53,32-2.18,40,0,14,2.17,22,8.17,19.25,18,23.62,22,8.38,4.15,26.38,12.08,26,11.59,32,14.76,18,11.32,40,19.24,62,13.92,62,13.92h44.44c-5.82-1.5-14.83-5.28-28.56-13.92-31.88-20.08-39.88-25.93-59.88-34s-28-8.08-42-16.08-28-10.57-42-30.28-23.12-9.69-26.81-24.53-1.07,12.45-35.13-13.37h0l-4.23,0c-54,0-207-81-246.7-101.37s-56.33-18.64-89.71-32.52-50.63-4.12-89.64-.46-42-15.66-87-18.66-39-18-69-35.83-36-3.18-57-12.18-48-18-48-18-78-9-114.89-3-32.13,9-106.75,33.18c-11.37,3.69-20.54,6.73-28,9.24C1675.62,326.45,1746.55,326.69,1757.46,326.45Z"/><path class="cls-1" d="M1213.47,251c-15.6-6-47.41-18-74.84-30s-29.57-21-41.57-34.17-48-28.83-60-40.83-54-39-87-57S851,47,830,43.46,764,2,755,2c-5.43,0-12,2.19-22.21,6.56,0,0,1.59-.33,19.57,11.65s36,23.25,36,23.25,20,26.75,30,34.75,28,30,38,32,30,4,44,10,40,16,46,18,26,18,26,18l31.75,28,10.25,42s18,40,32,46,64,28,64,28l28.25,17s13.75-11,25.75,0,16.94,27,30.47,31,25.53,25,31.53,23.49,44,16.51,44,16.51,19.36,4,30.68,10,7.51,18.84,25.41,22.42,37.91,19.58,45.91,25.58,12.74,16,26.37,18,21.88,12.17,29.76,10.09-11.39-34.09-29.76-44.09-26.37-16-40.37-26-57.32-44-57.32-44l-44.68-43s-10-17,18,0,42.19,23,52.09,29,13.91,8,29.91,16,38.74,1,42.37,9.49,31.57,18.51,31.57,18.51-1.94,0,16.06,12,62,34,62,34-54-65-70-64.51-31.26-3.49-39.63-9.49-14.37-10-26.37-18-.66,3.35-12-8-21-8.71-32.3-19c-18-17.82-39-30.18-57-45.18S1229.07,257,1213.47,251Z"/><rect class="cls-1" x="1427.91" y="1569.76" width="329.29" height="247.46"/></g><g id="layer_7-2" data-name="layer_7"><path class="cls-2" d="M1285.7,519.35s83.21-26.38,107-37.67,67.2-.93,107-36.26,55.47-18.35,103-51.3,93.35-55.56,131.87-74.39,82.11-45.2,133.62-75.33,134.41-82.86,146.46-82.86,52.45-7.53,79.8,0,43.19,26.36,90.74,33.9,82.07,15.06,116.33,15.06,73.87,16.68,73.87,16.68,46.08-9.69,94.37,0,134.2,47.35,140.77,51.12,23.54,22.6,52.7,22.6,101.71,7.53,103.08,0,49.55-18.84,73-33.9,40.16-15.07,49.64-22.6,33.26-18.83,65-33.9,169.74-14.23,229.5-52.31,131.09-60.88,131.09-60.88,54.07,3.57,64.68,0,140.38-45,158.71-48.76,10.4-11.3,77.76-26.37,39.22-18.83,90.94-18.83,51.71-7.53,71.52,0,121.17,22.6,120,26.36.4,3.77,47.18,11.3,42.82,7.54,106.22,22.6,40.53-.74,91.23,27.19,67.07,32.8,109,52.24,47.91,34.6,116,41.61,108.11-6.51,164.25,4.32,32.56.42,102.93,16.63,141.7,39.22,181.32,54.07S5001,324.21,5001,324.21l.51,1310L57.32,1604.08,45.43,526.88S1048.71,609.9,1285.7,519.35Z"/><path class="cls-3" d="M0,371.7s20-16.55,47-35.61S107,305,134,290s58-23.4,114-39,79.9-17.07,118.1-35.34,50.21-37,91.92-69.67,87-39,135-66,87-48,114-60S746,2,755,2s54,37.92,75,41.46S917,71,950,89s75,45,87,57,48,27.66,60,40.83S1111.19,209,1138.63,221s59.24,24,74.84,30,39.6,6,57.6,21,39,27.36,57,45.18,168,13.94,207,18.88,72-1.94,93,0,.77,5.31,75.39-18.88S1773.37,290,1810.25,284s114.89,3,114.89,3,27,9,48,18,27-5.64,57,12.18,24,32.83,69,35.83,48,22.32,87,18.66,56.26-13.42,89.64.46,50,12.15,89.71,32.52,192.69,101.37,246.7,101.37,63-9,81,0,90,5.92,99,22.46,1.93,7.5,26.46,19.53,45.54,42.48,63.54,42.25,15,14.74,57,11.75,30,36,129,0,114-33,123-39,15-3,46.52-15,41.54-46.41,81.52-59.2,40-15.2,67-30.5,36-45,57-48.14,63-38.5,63-38.5,2.15-14.34,17.58,0,18.42,24.61,27.42,33,30,17.36,45,26.36-2,21.6,29,27.3,103.2,30.5,103.2,30.5,4.13,3.43,55.8,39.67,150.84,40.55,150.84,40.55,11.55,4.77,41.34-9.57,87.33-15,102.85-40.09-3.83-28.79,32.59-48.07,18.42-28,87.43-61.13,85.4-13.51,90-38.5,27.26,2.52,77-34.92,81.38-64.14,90.42-79.33,56.67-42.71,56.67-42.71-17.75-15.88,11.09-7.8S4568.4,224,4586.4,233s213,111,255,117,24,0,42,6,117.95,54.16,117.95,54.16V1732.63L0,1678.21Z"/><path class="cls-4" d="M3510.4,365.72c0,.06,5,23.51,13.48,38.49s9.5,17,15.5,20,21,13,21,13,11,7,13,10,10,14,11,18,2,11,6,14,21.88,12,34.94,15,34.06,10,37.06,11a21.91,21.91,0,0,1,10,6c4,4,15,8.19,15,8.19l6,9.81s-1-1,5,6,30.69,18.38,27.78,24.1,20.22,12.9,25.22,14.9,10,3,20,11,18,11,18,11,4-8-8-17-24-16-29-20-12-9.57-19-15.28-11-8.72-13-13.72l-2-5s6.28-11.63,10.14-5.81,12.86,9.81,19.86,17.81,13,19,19,22,14.28,11,22.64,12,26.68,8.49,28.68,9.16,11.71,2.78,12.49,4.57-1.45,6.75,3.37,13,10.28,10,14.05,15.13,5,10.28,18,13,31.28,17.52,40,16.81,24.33,1.55,24.33,1.55l4.86.29s-.43-14.92-5.43-22.24-10-14.65-15-17.48-8,1.16-9-11.84,3-8-1-13-14-15-25.36-17.67h0c-2.17-.39-4.37-.79-6.6-1.22a39.49,39.49,0,0,1-5.65-1.13c-28.68-5.93-60.67-15.7-83.44-31.68-51.67-36.24-55.8-39.67-55.8-39.67s-72.21-24.79-103.2-30.5-14-18.29-29-27.3-36-18-45-26.36-12-18.64-27.42-33c-4.15-3.86-7.33-5.63-9.78-6.17l-3.69.18Z"/><path class="cls-4" d="M2860.63,638.21h-9.81C2858.52,640.2,2860.63,638.21,2860.63,638.21Z"/><path class="cls-4" d="M1757.46,326.45c10.92-.24,40.65,1.52,52.78,9.64s12.14,6.12,26.14,12.12,28.92,6,35.46,12,44.54,9,64.54,11.49,54,.51,70,8.51,54,32,54,32l54,30s-12,2,0,10,1.18,21.58,27.59,32.79,42.8,27.58,71.6,34.4,13.65,6.24,62.23,24.53,84.09,47.37,94.45,51-12.48-16.75,36.82,17.25,51.87,27,76.59,40.51,39.22,14.25,49,19.87,43.75,16,43.75,16h22s-79.29-35.83-97-35.83-19-20.35-37-28.43-50.11-25.93-51.06-34-6.88-16.84-20.94-24.08-19.28-8.53-37.64-19.27-42.36-30.36-58.36-27.54-55-3.73-62,0-68-34.4-68-34.4-6-4.62-6-10.7V458.21c0-12,2-39.16,0-37.58s-18.41-8.42-18.41-8.42c18.41,8.42,38.41,8.42,38.41,8.42l16,15.58,17.19,20s4.81,8,24.81,10,50,12.17,56,8.09,3.65-5.92,22.83,0,89.86,45.1,89.86,45.1,23.82,24.46,38.56,28.64,32.75,18.17,55.75,22.17,29,24.15,49,20.08,32-1.93,48,0S2646,602,2646,602s-45.62-19.83-61.62-27.83-43.5-28.35-51.75-26.17-33.69,15.82-49,0-4.77,8.54-38-28.64-13.25-23.19-33.25-37.19c-17-11.87-22.22-15.11-37.54-19.48-2.75-.79-5.81-1.61-9.33-2.52-23.13-6-48.3-12-48.3-12s-29.6,4-33.22-16-7.61-30,14.39-20,147.25,62.09,147.25,62.09,6.75-.83,20.75,14.54,35,39.67,35,39.67h19.7s27.3,21.35,39.3,19.53,32-2.18,40,0,14,2.17,22,8.17,19.25,18,23.62,22,8.38,4.15,26.38,12.08,26,11.59,32,14.76,18,11.32,40,19.24,62,13.92,62,13.92h44.44c-5.82-1.5-14.83-5.28-28.56-13.92-31.88-20.08-39.88-25.93-59.88-34s-28-8.08-42-16.08-28-10.57-42-30.28-23.12-9.69-26.81-24.53-1.07,12.45-35.13-13.37h0l-4.23,0c-54,0-207-81-246.7-101.37s-56.33-18.64-89.71-32.52-50.63-4.12-89.64-.46-42-15.66-87-18.66-39-18-69-35.83-36-3.18-57-12.18-48-18-48-18-78-9-114.89-3-32.13,9-106.75,33.18c-11.37,3.69-20.54,6.73-28,9.24C1675.62,326.45,1746.55,326.69,1757.46,326.45Z"/><path class="cls-4" d="M1213.47,251c-15.6-6-47.41-18-74.84-30s-29.57-21-41.57-34.17-48-28.83-60-40.83-54-39-87-57S851,47,830,43.46,764,2,755,2c-5.43,0-12,2.19-22.21,6.56,0,0,1.59-.33,19.57,11.65s36,23.25,36,23.25,20,26.75,30,34.75,28,30,38,32,30,4,44,10,40,16,46,18,26,18,26,18l31.75,28,10.25,42s18,40,32,46,64,28,64,28l28.25,17s13.75-11,25.75,0,16.94,27,30.47,31,25.53,25,31.53,23.49,44,16.51,44,16.51,19.36,4,30.68,10,7.51,18.84,25.41,22.42,37.91,19.58,45.91,25.58,12.74,16,26.37,18,21.88,12.17,29.76,10.09-11.39-34.09-29.76-44.09-26.37-16-40.37-26-57.32-44-57.32-44l-44.68-43s-10-17,18,0,42.19,23,52.09,29,13.91,8,29.91,16,38.74,1,42.37,9.49,31.57,18.51,31.57,18.51-1.94,0,16.06,12,62,34,62,34-54-65-70-64.51-31.26-3.49-39.63-9.49-14.37-10-26.37-18-.66,3.35-12-8-21-8.71-32.3-19c-18-17.82-39-30.18-57-45.18S1229.07,257,1213.47,251Z"/><rect class="cls-3" x="1427.91" y="1569.76" width="329.29" height="247.46"/></g></g></g></svg>