<svg xmlns="http://www.w3.org/2000/svg" viewBox="0 0 5000 2025.87"><defs><style>.cls-1{fill:#1d0025;}</style></defs><g id="Layer_2" data-name="Layer 2"><g id="Vrstva_1" data-name="Vrstva 1"><path id="layer_2-2" data-name="layer_2" class="cls-1" d="M3946.71,1870.94c90.65-21.73,173.13-44,226.29-64.07,180-68,632-248,652-277s76-155,76-155-172-76-255.11-68a575.8,575.8,0,0,1-67.83,2.71c-.51-.19-.93-.32-1.24-.41a49.37,49.37,0,0,1-6.51-3.24s-6.52-3.69-9.23-6.82a6,6,0,0,1,5.24-9.56l2.64.07s14.92,1.25,16.68,1.3a30.45,30.45,0,0,1,7.46,1.07c4.37,1,3.47,1.85,4.77,2.76s2.15,1.82,4.31,3.18,14.12-1.84,14.12-1.84l-6.94-3.69s-4.81-1-7-2.25-2.54-4.15-1.21-4.56a24,24,0,0,0,3.57-1.67,33.07,33.07,0,0,0,3.95.54c1.32,0,13.64-.53,13.64-.53a96.84,96.84,0,0,0,8.5-5.31,2.63,2.63,0,0,1,3.5.09,23.58,23.58,0,0,1,7.05.18c3.06.73,8.85-2.17,10.17-2.14l3.08.08c1.31,0,5.36-3.82,4.55-6s-4.31-3.79-4.31-3.79l-8.37.23s-11.84-1.45-14.51-.1-17.54-1.87-18.9-.14-12.28-1.63-14.95-.38-29.33,11.14-31.1,12-17.65,1.76-17.65,1.76-19.12,8.31-20.43,7.84-10.12.18-14.07-.36-8.3-2-18.76-6.19c-9.08-3.67-11.68-.86-13.63-.39a52.46,52.46,0,0,1,1.47-8.15c2.05-7.09,4.1-2.8,6.35-2.68s6.48,5.72,6.48,5.72,15.74,1.4,17.46.88.34-6.58.34-6.58-2.89-9.73-2.8-11.53.27-5.39.39-7.78-3.73-4.38-7.11-4.56,38.59-14.84,42.62-16.43,7.74-8,7.74-8a11.34,11.34,0,0,0,6.77.36c3.44-1,7.09-6.25,7.09-6.25l1.34-4.14s1.9-4.09,2-5.89,1.64-10.11,1.83-13.7,2-6.49,24.69-19.14c8.86-4.94,11.85-6.51,12.31-6.77-.57.25-4.51,2.15-3.54.62,1.85-2.91-.22-6.62-.7-8.44s.28-5.39.31-6,.9-6.55.9-6.55l2.4-2.88,4.75-4.55s-.29-5.41-.16-7.81-3-8.54-3-8.54l-7.5,3.21-3.54,2.83-9.9,6.1s-13.73,3.5-17.12,3.32-9.19,3.13-21.9,8.75-11.37,1.56-16.9-.86a15.75,15.75,0,0,0-10.71-.54l-8.43-.42s-24.75-2.12-27-1.64-14.07-.71-19.71-1-7.29-1-15.75-12.19-6-22.11-6-22.11,2.91,1.75,3.94,3.8,5.63.29,7.13.36l8.27.42,13.15.67a11.24,11.24,0,0,0,9.25-4.33c1.2-1.54,1.64-2.72,6.54-2.87s2.23.51,2.23.51,4.69,4.24,8.38,5.64,6.57-3.67,6.57-3.67-2.42-4.13-2.35-5.32-2.82-3.74-2.82-3.74l-1.12-7.66,1.22-1.91,3.11-1.87,2.53,2.16,2.66-.48s2.18,1.49,3.37.16,5.64.29,5.64.29l-2.13-2.71s-2.34-5.72-2.22-8.11.85-2,.85-2,3.76.19,4.85,1,5.58,1.08,7.41,2.38a33.93,33.93,0,0,0,11.1,3.76c2.63.13,5.6,8.28,9.44,6.88s5.45-10.92,0-14-8.86-14.65-4.43-24,5.25-3.33,16.63-5.15,7.73-7.41,7.73-7.41l2.25.11s.22-4.19.3-6,.9-6.56.9-6.56a74.28,74.28,0,0,1,3.88-10c2.54-5.26,6.39-3.26,6.39-3.26a19.28,19.28,0,0,0,8.07-3.2c4.09-2.78,2.87-1.06,6.94-3.24s2.91-1.65,3.77-7.62c0,0,13.18-3.52,17.82-6.29s-2.6-4.32-2.6-4.32l-4.48-.83c-4.49-.83-4.9-3.26-10.74-10.74s.93-7.16,1.76-12.51-2.81-22.34-6.7-23.74,0,0,.3-6,0,0,.7-2.35,11-5.45,17.11-14.73-11.14-3-24.55,5.35a177.12,177.12,0,0,0-41.6,35.08c-14.67,16.65-81.3,49.86-87.26,56.15s-2.82-.14-2.82-.14-39.22-6.19-43.13-7c-2.94-.58-3.69-.4-3.88-.27,1-1.22,14.06-17.26,20.65-18.66,6.86-1.45,9,.46,16.49-2.17s20.79-9.15,22.69-13.24,2.82.14,2.82.14l13.73-3.5s4.19-4.59,5.4-6.33,3.13-5.84,6.61-18.86.48-9.56.57-11.36,2.53-5.27,2.53-5.27l2.81.15s8.37-9.18,12.45-11.66.26-5.1.36-6.89-1.55-3.07-2-5.5,4.22-5.19,4.22-5.19a59.44,59.44,0,0,0,8.57-2c5.16-1.54,6.62-8.07,6.62-8.07a19.47,19.47,0,0,0-7.17-3.36,72.46,72.46,0,0,1-11.14-3c-6.67-2.14-2.08-3.71-2.08-3.71s3.69-5.8,6-6.89,13.61-1.11,19.28-1.43a94,94,0,0,1,12.13.32s-4.33-3.81-5.11-5-9.29-.78-9.29-.78-6.49,0-8.11-.11a14.75,14.75,0,0,1-5.34-1.77c-1.1-.66-3.75-4.08-2-5.19s0,0,.34-1.19-.32-4.82-.32-4.82l-3.78-3.48a11.1,11.1,0,0,1-2.6,1.07c-1.14.23-5.73,1.8-6.86,1.74a4,4,0,0,1-3.26-2.56c-.49-1.52.71-3,1.32-3.83s12.3-10.38,17.28-19.72,2.79-10.26,6.91-17.24-1.27-4.86-14.84,10.44-28.07,33.77-34.64,44.63-9.34,5.92-21.2,17.32-7.76,4.41-17,7.94-14.72,8.05-20.47,17.36-5.49,4.51-10.79,5.05-26.21-2.93-29.09-5.48-3.75-.19-3.75-.19L4373,901c-13.28-5.47,15.46-9.71,15.46-9.71s9.61-5.81,16.92-10.84,1.24-2,1.24-2l1.21-1.74c1.23-1.73,1.23-1.73,2.13-2.88.39-.5,2.81-1.07,5.5-1.53-1.31-1.67-2.89-4.12-2.86-5.17a33,33,0,0,1,1-4.9l5.84-1.19a22.3,22.3,0,0,0,6.23,1.5c2.68.06.85,1.81,3.4,7.24a5.85,5.85,0,0,0,.29.56c4-1.24,9-3.37,11-6.08h0l-5.67-4.61-3.94-3.24-3.54-1.88s-8.83-4.7-9.24-6l-.82-2.7,4.47.11,5.36.14,6.27.15a23.09,23.09,0,0,1,6.21,1.95,23.6,23.6,0,0,0,5.16,1.35c2.72-1.56,6.48-2.4,8.53-3.45a30.71,30.71,0,0,0,5-3.35,50,50,0,0,0-6-1.83c-1.78-.5-20.36-8.57-20.36-8.57l1.79,0,6.3-1.63s16.58-.92,17.93-1.33a25.67,25.67,0,0,0,3.62-1.7l2.5.06c.68-.83,1.62-1.71,2.68-2.9a6.66,6.66,0,0,0,1.51-3.37c-.82,0-1.57.07-2.06.06-1.79,0-2.69.38-5,1.22a13.13,13.13,0,0,1-5.39.75l-9.83-.25c-1.8,0-4.9-1-6.24-1s-8-2.89-10.61-5.2-1.73-2.27-1.73-2.27,1.8-.41,5.8.59,7.56,2,11.56,3,4.47.11,10.73.27,6.31-1.63,8.56-2.47c1.52-.56,5.67-1.86,8.24-2.66a14.2,14.2,0,0,1,2.77-2.89,35.14,35.14,0,0,1,4.37-2.76c1.45-.83,1.58-3.52,3.1-5.55s.26-5.08.26-5.08-10.26,1.87-11.41,2.42-3.49,1.93-7,3.83-4.31,1.59-6,1.51l-16.62-.85c-2-.1-1-1.86-1-1.86a47.87,47.87,0,0,0-5.17-3.85,2.39,2.39,0,0,1-1.57-2.48c0-.9,1.87-3.51,3.34-4.66s1.71-.18,1.71-.18,7,1,8.72.44,3.39.17,4.79.24,3.27-3.13.62-6.56-7.61-.39-7.45-3.58,1.24-1.93,4.05-5.39c2.67-3.29,2-1.31,1.94-1.11a21,21,0,0,1,2.74-2.24c1.17-.76,1.33-3.94,1.76-5.11s.15-2.81.65-5.18.51-2.77,1.64-2.72,2.71-1.46,2.71-1.46l4-4.19c4-4.21-.2-3.61-.82-6s-3.48-5.78-4.52-7.44-.65-2-.65-2a15.22,15.22,0,0,1,2.47-4.28c2-2.69,2-1.89,5.23-6.54s2.18-5.89,3.08-8.63-2.69-2.93-2.69-2.93a138.57,138.57,0,0,0-10.93,11.44c-4,5-5.93,5.69-16.93,14.74s-20,8.58-24.29,11.15a39.24,39.24,0,0,1-10.36,3.87s-21.17,9.34-23.83,9.61-9-.46-10.89-.56l-7.14-.37-2.4.34c.05-2.7,7.6-3.71,7.6-3.71l5.21-4.66.95-2.08s.38-3.28,1.58-3.25a32.3,32.3,0,0,0,5.12-1.07l3,.07c1.2,0,6.34-1.63,6.34-1.63s.69-3.58,1-4.47,3.32-.82,4.21-.8a13.52,13.52,0,0,1,4.76,1.33,7.74,7.74,0,0,0,3.88.69,17.9,17.9,0,0,1,3.32-.81c1.8-.26,1.25-2.07,1.28-3.26s-9.12-6.52-9.12-6.52-4.43-2.82-2.27-5.46,0,0,1.84-1.15,2.46-2.63,4-3.19.65-1.78,1.58-3,4.32-5,5.55-6.16a8.71,8.71,0,0,1,5.17-2.86c3.31-.82-5.09-3.93-5.09-3.93s-7.72,4.6-9.75,6.15A103.52,103.52,0,0,0,4390,726c-2.88,3.11-13.34,6-16.57,7.14s-15.86,11.21-18.72,13.93-10.52,4.93-11.73,5.3-18.42,2.33-23.23,2.61-6,1.45-12.89,4.07-22.57,4.08-24.23,3.37a15.55,15.55,0,0,1-1.56-.91l.12-2.39.91-10.35s2.41-3.08,5.79-2.9,15.77.78,15.77.78,1.48.48,4.64-2.55,0,0,.46-1.58,2.16-5.49,2.16-5.49l2.26.13L4317,735s11.26,1,13.9.7,5.76-2.11,7.3-2.83,8.78-10,8.78-10l4.14.22c2.26.11,0,0,7.54-.43s3.39.17,5.27.27,3.12-2.23,3.12-2.23l1.18-1.15c1.2-1.15.13-2.39,2.07-3.49a16.09,16.09,0,0,0,2.74-1.87l3.37.17c1.13.07.58-4,.58-4a15.58,15.58,0,0,0-3.43-6.57c-2.85-3.34-1-6,.84-14.84s1.71-.24,4.23.2,16-4.29,16-4.29l3.44-6.42-5.36-4.68s.1-4,.15-5.7a13.29,13.29,0,0,0-1.23-4.4s-3.92-4.46-5.24-5.17-2.93-3.76-2.93-3.76a13.75,13.75,0,0,1,2.81-5c2.07-2.3,1.34,0,2.33.73s6.94,4.53,8.58,5.92,2.3,1.74,2.93,3.43-.06,2.35-.14,5.7,1.58,3.73,1.58,3.73l3.46,3.75c.45.1.64.7.64.7s6.6-2.08,8.4-4.38,1.42.07,1.42.07l.37-1.77a19.07,19.07,0,0,0,3.58-4c.95-1.75,1.36,1.27,5.08.26s4.5.23,4.5.23a26.07,26.07,0,0,0-.62-4.5c-.47-1.79-5.81-2.13-6.92-2.78s-4.15-1.41-6.08-2.4-9.9-5-9.9-5l-3.2-3.77-.13-3.3.39-2.08s1.29-2.92,1.92-4.39a3.42,3.42,0,0,1,2.64-1.67l5.67-.63s8.73,4.26,8.92.47.84-1.76.84-1.76a37.52,37.52,0,0,0,3.57-3.61c1.6-1.93,2-1.71,2-1.71l1.22-1.73a50.93,50.93,0,0,0,2.14-5.1,17.82,17.82,0,0,0-.61-2.83s-1.83-1.29-2.73-1.94a11.79,11.79,0,0,1-2.13-2.7l.62-1a13.55,13.55,0,0,1,2.34-1.49c1.16-.53,4.38-5,4.38-5l-.51-1a33,33,0,0,1-4.84-1c-.91-.44-.44-2.42-.44-2.42l.8-1c.81-1,2.69-1.06,5-2.14s8.13-.58,8.13-.58l4.66-3s1.57-1.33,4.32-3.38a27.07,27.07,0,0,1,4.27-2.59,2.25,2.25,0,0,0,.85-1.95c0-.6-.7-1-.7-1s-3.65-2.18-6.79.26-11.61-1.19-11.61-1.19,9.33-5.92,10.16-7.48,2-1.5,3.15-2.64,2.39-2.68,7.58-8.41,0,0,4.27-2.59,3.86-1.8,3.86-1.8,3.48-1.82,4.64-2.56,2.34-1.49,4.78-5-2.69-6.53-2.69-6.53l-8.86,4-6.2,3.68c-6.21,3.68-8.92,5.14-15.9,9.2s-4.05-1.81-4-3a27.62,27.62,0,0,1,1.37-4.74l2.43-3.48s4.72-4.16,6.28-4.87,1.61-2.32,3.2-3.84,1.22-2,5.2-6.14,1.9-.3,3.41-.22,3.47-1.84,3.47-1.84l1.87-7.09a12.73,12.73,0,0,0,.29-5.59c-.64-2.43-2.64-.12-4.73-3.43s-11,9-17.37,15.91-16.08,12.78-22.91,21.24-5.75,9.3-9.51,16.7-3,7-13.21,22.94-3.52,2.61-8.66,7.55-4.38,4.58-8.83,10.75-5.64,7.31-8.39,9.56-13.65,9.32-13.65,9.32a33.59,33.59,0,0,1-3.68,5.8c-2.42,3.08-3.92,3-5.86,4.1s-3.46,1.43-11.07,3-11.91,4.58-14.93,4.83-8.42,2.78-9.89,1.9-7.16.44-11.63-.59-5.64-.29-5.64-.29a22.45,22.45,0,0,1-5.8-4.29c-3.6-3.38-.49-5.21-.49-5.21a48.79,48.79,0,0,1-7.89-.42c-2.61-.53-1.28-4.46-1.28-4.46l1.22-1.53c1.2-1.55,0,0,1.54-.73s12.67-5,14.67-7.25,11.75-1.8,13.64-1.69,3.85-1.82,3.85-1.82l2.78-2.66,1.54-.72c1.54-.72,5.08-3.74,6.62-4.46a9.06,9.06,0,0,0,3.12-2.24c1.19-1.15,5-1.35,7.29-2.43s1.5.08,3,.15,2-1.5,3.13-2.24,1.69-3.52,2.5-4.68,1.78-5.51,5.64-7.3l1.18-.55h0a.06.06,0,0,1,.05,0l.17-.08.18-.08.1,0h0s0,0,.05,0c1.34-.66,1.43-1.06,2.9-1.75s5.14-4.94,5.14-4.94l.21-4-4.3-4.23a57.89,57.89,0,0,1-1.16-6.86c-.24-2.8,1.49.1,1.49.1s7.39-4.43,8.55-5.18.87-2.35.94-3.55a5,5,0,0,1,.47-2l.12-2.39s1-4.34,2.16-5.49a3.34,3.34,0,0,1,2.31-1.07s3.78-.22,5.68-.52,3.46-1.43,5-1.75.14-2.78-4.68-4.24a101.46,101.46,0,0,1-11.43-4.58l-1.88-.09-2.38-5.32,1.95-1.09s12.95-2.94,14.44-2.88,10.7-3,10.7-3,4.32-3.38,6.29-5.29,4.8-5.34,7.11-6.43,3.48-1.82,5.4-2.53,7-4,8.86-3.94,7.68-2.82,10-3.9.56-3.57.33-6.38-2.49-2.92-8.94-2c0,0-16,4.37-19.86,5.79s-1.58,1.51-4.29,3-3.72-1-3.72-1l1.27-2.74,4.33-3.78c4.34-3.78,4.38-4.58,4.87-6.95s-.27-2-.2-3.21-.59-3.64-.5-5.23,4-5,4-5,3.63-4.62,8.82-10.35,2.49-4.66,5.26-7.33,0,0,.85-2,5.8-10.51,7.51-14.41-3.14-5-3.14-5a56,56,0,0,0-4.85,6.55c-2.45,3.88-15.06,16.43-15.06,16.43l-12.53,15.36-5.5,4.53-9.1,8.73a17.58,17.58,0,0,1-5.83,3.7,46.64,46.64,0,0,0-7.2.84c-2.66.66-6.42.47-15.46,8s-6.73,6.46-6.73,6.46-6.79,7.65-9.22,11.13a17.56,17.56,0,0,1-6.67,5.26,68.72,68.72,0,0,0-10,4.69c-4.27,2.58-3.88,2.19-9.28,4.72a10.64,10.64,0,0,0-2.91,2c-1.78,3.16-3.38,6.27-4.89,8.49a13.36,13.36,0,0,1-3.58,3.54c-.21.2-.43.4-.64.58-2.37,1.88-9.33,5.93-12.72,5.76s-.3-1.62.14-2.8a6.63,6.63,0,0,1,.71-1.16,18.82,18.82,0,0,0,1.57-2.6c.37-1.33,1.39-1.64,2.11-3.64s0,0,.05-2-5.22-5.84-5.22-5.84-.92-3.71-.54-5,5.4-1.55,5.4-1.55a6.1,6.1,0,0,1,1.74-2.3c1-.65,1.07-2.32,1.09-3.33a2.31,2.31,0,0,1,1.05-1.65l5.07-1.55.06-2.35a33.36,33.36,0,0,1-.24-3.7,1.79,1.79,0,0,1,1.38-1.64l1.7-.63,5.32,1.82s3.7-.58,4.72-.89,1.42-3,1.42-3a17.79,17.79,0,0,1-2.27-3.42,8.45,8.45,0,0,0-1.61-2.39,21.25,21.25,0,0,1-1.91-4.07,3.66,3.66,0,0,1,.74-2.67l1.33.37a12.53,12.53,0,0,1,4,2.45,7.62,7.62,0,0,0,3,1.42c1,.36,6.53,7.21,8.5,8.6s3.4-1.59,3.4-1.59a10.92,10.92,0,0,1,2.38-1.28,21.17,21.17,0,0,0,3.41-1.93l-1-2-2.27-3.08-3.35-.08-3.7.24-3.64-2.1s-1.25-3.39-.9-4.39,1.09-3,1.09-3a6.31,6.31,0,0,0,2.72-1.61c.7-1,2.69-.27,2.69-.27l3.69.43a35.35,35.35,0,0,1,4,2.45c1.32,1,0,0,2.15,7.77s2.68.07,3.69.1a6.17,6.17,0,0,0,3.06-1.27c1-.65,2.06-2,3.08-2.61s.74-2.66.74-2.66l-1-1.37-3.68-.43-1.64-1.71-1.61-2.4-1.66-1.05-3-1.75-3.62-3.11a10.75,10.75,0,0,1-1.94-2.73c-.31-1,0-1.68,4.48-4.59s6.34,1.51,7,2.53-.06,2.35.24,3.7,2.94,3.42,5.24,5.16,5,1.47,7,1.52l1.05,0c2.36-1.8,4.09-5.32,3.26-6.63s-.82-3.15-1.24-4.06a4.35,4.35,0,0,0-3.08-2.09c-1.12,0-1.8.62-3.13-.3s-2.2-1.18-2.85-2.09a25.2,25.2,0,0,0-2.16-3,13.28,13.28,0,0,0-3.52-2.33c-.67-.24-1.33-.7-2.22-.95s-3.37.59-4.23-1-2.17-2.29-1-3.16,2.18,2.07,7.77,2.21,13.17,1,13.17,1a19.55,19.55,0,0,1,3.17-1.49c.9-.2,1.58-.63,2.25-.39a7,7,0,0,1,1.75,1.38l.4,2,1.08,1.81s2.44.52,3.11.76a12.48,12.48,0,0,1,1.76.94s1.54,1.15,1.52,1.82a8.77,8.77,0,0,0,.62,2.26c.21.67,1.53,1.38.4,1.79S4360,485,4360,485l.37,2.69,1.09,1.37.43.14c3.19-1.69,5.72-3,5.72-3s3.88-2.38,4.34-3.95-.19-3.61-.4-6.82-2.17-1.71-2.17-1.71-2.29.69-2.57-1.33a91.07,91.07,0,0,1,.13-10c.08-1.6,2-3.1,2-3.1l2-2.7a32.56,32.56,0,0,0,4.77-4.94c1.62-2.33,1.27-2.74,3.58-3.82s12-7,13.19-7.73l4.67-3c2.34-1.47,8-16,7.28-17.21s-6-.31-6-.31l-5.43,3.32a13,13,0,0,1-4.36,4.17c-2.71,1.47-8.41,7.58-8.41,7.58s-10.57,3.06-18.33,7.46-2.49,4.68-4.93,8.15-2.06,3.5-4.06,5.8-2.06,3.48-14.36,8.45-2.92-1.73-5.41-4.66-7.76-2.8-9.62-3.29a2,2,0,0,1-1.38-2.47l1.73-4.3a19.35,19.35,0,0,0,4.33-3.79c2.39-2.68,0,0,2-3.1s0,0,.89-2.74,1.58-1.52,9.07-7.95c3.2-2.74,4.09-3.48,4.19-3.58-.1.05-1.07.79-.24-.21,1.61-1.92-.25-2.42-.25-2.42l-2.63-.13-3.79.62-3.43.62-4.94.94s-2,3.1-10,10.7-3.62,4.61-8,8.39-3.93,3.4-6.25,4.48a29.77,29.77,0,0,0-5,2.55c-2.33,1.47-5.49,4.5-7,5.23a12.24,12.24,0,0,0-2,1.1s-13,5.74-14.22,6.89-4.94.94-7.18.82-2.69,1.07-4.6,1.37-4.78,5.35-9.49,9.12-9.4-.47-9.4-.47l1.32-3.54a45,45,0,0,1,2.53-5.47c1.25-2.33.94-3.56.94-3.56l4.42-5.77c4.44-5.77,10-3.48,11.11-3.43s19.91-6.6,19.91-6.6,1.77-5.5.84-9.14,0,0-3-.56-9.4-.08-14.27-.71-5.24-.68-7-2.37-8.79-4.88-8.79-4.88l.93-3.51a6.85,6.85,0,0,1,4.26-2.18,27.93,27.93,0,0,1,3.39-.23s7.78,10,10.25,5.71a6.7,6.7,0,0,1,1.42-1.6c-.66-.29-1.3-.59-1.91-.91-8.83-4.7-1.3-1.83-2.57-4.54s.05-2.24.1-4,0-1.79,1-3.11,3.13.08,4.48.12.93-1.77,1-3.11a2.65,2.65,0,0,0-.4-1.8,37.1,37.1,0,0,1-4.36-4.58,8.71,8.71,0,0,1-1.66-5,9.27,9.27,0,0,1,4.12-3.92c3.17-1.71,3.16-1.26,3.16-1.26s4.53-2.13,6.77-2.07,4.41,2.35,6.6,4.19,0,0,1.27,3.17,1.58,8.09,9.15,9.63,6.27-.29,8.54-1.58.51-2.22.54-3.56-1.29-2.27-3-5.45,0,0-.41-1.35-.83-2.71-.83-2.71l-1.28-2.26.18-7.16,1.34,0c1.34,0,2.2,1.4,3.52,2.33s3.13.08,6.26.16a31.12,31.12,0,0,0,7.18-.72,3.05,3.05,0,0,0,1.41-.64c.82-1.34,1.51-2.39,1.51-2.39l-1-3.18-.86-1.81-.79-4.05,1.84-1.74,3.61-1.25.05-2.24-.81-3.15-12-3-2.55-5.43,4.48.11,11.18.28c3.13.08,4.93-.32,7.61-.25s2.23.5,3.56,1c1,.38,2.65.22,5.63.2.06-.27.11-.45.11-.45l7.15-7.24s-2,.61-9.18,2.22-8.05-.21-10.28-.71-6.25-.61-8.92-1.12-4.84-3.26-4.84-3.26.52-2.67,1.88-3.53,3.13.08,10.73.27l7.61.2a30,30,0,0,0,6.27-.29c4-.35,6.31-2.08,8.1-2,1.22,0,5.33-.49,8.69-.8,1.05-.67,1.67-.51,5.88-.94,5.3-.53,1.29-3.13,1.8-5.91s.15-2.79.15-2.79l.48-2,8.05-10.39s.6-4.36.68-6-1.86-.5-1.86-.5L4375,320s-10,11.1-11.93,12.19-2.7,1.47-2.7,1.47-1.57,1.12-15,5.64-6.22-3.51-6.1-5.9.15-2.79,1.31-3.54a18.38,18.38,0,0,0,2.77-2.66c1.19-1.14,7.95-8.39,8.77-9.55s2.37-2.29,3.18-3.43,4.16-7.44,5-10.81c2.11-2.57,4.26-4.89,5.21-5.41,1.28-.37,2.59-.16,5.76-1.37,4.62-1.77,3.13-2.25,4.3-3s10.44-5.47,12.39-14.17c1.86-8.33-3.08-11.5-3.51-11.76-1.74,2.82-2.59,7.15-4.53,11.45-2.24,5-9,9.4-13.16,11.84l-.38-2.79.73-2.21a13.74,13.74,0,0,1,2.08-2.86c.68-.43.94-1.77,3.3-6.4s.09-3.8.09-3.8-1.65,3.31-2.58,4.85-3,3.51-3.7,4.83-3.46,3.94-5.5,7.91-.15,3.13-.14,5.46a32.83,32.83,0,0,0-1.63,3,12.28,12.28,0,0,1-1.9,1.05c-1.81.88.16,2.44-1.56,4.85a39.4,39.4,0,0,1-3.22,3.44c-1.45,1.45-1-1.27-1-1.27l-.16-2.47s.54-3.57.57-4.68a14.91,14.91,0,0,1,.31-3.35,16,16,0,0,1,1.5-3.32c.54-.66-.26-1.79,0-3.58s0-1.56-1.28-2.49a30.65,30.65,0,0,0-1.43,3.77c-.26,1.11-1.18,2.2-1.66,3.53a31.93,31.93,0,0,1-1.45,4.22c-.7,1.32.84,2-.08,3.13s-.07,2.9-.11,4.47-3,8.46-3,8.46c-.57.41-1.08.76-1.5,1-3.42,2.26-7.54,6.18-10.28,8.46s-6.13,3.54-8.51,4.82a46.15,46.15,0,0,1-9.15,3.46c-3.38.92-17,12.42-17,12.42-2.45,2.52-4.07,4.15-6.12,6.4-2.79,3.05-4.27,2.58-7.65,2.42s-8.56-2-10-3.31.49-2.37-2.18-9.31,1.17-7.94,1.62-9.51,1.88.08,1.88.08,11.87-3.78,13.8-4.89c.6-.34.83-.46.9-.49s-.43.34.25.15c1.15-.34,4-4.6,4.81-5.76s1.54-.72,5.24-6.93-.53-4.42-.53-4.42a9.94,9.94,0,0,0-3.12,2.23c-.82,1.17-10.47,5.88-19.67,9s-4.28-4.22-4.28-4.22l4.73-4.56s7-3.64,10-3.89,5.44-3.33,7-4.84,4.31-3.38,5.12-4.55,2.32-1.08,4.33-3.77,3.62-4.62,4.85-6.56,1.61-1.91,4.69-3.35,0,0,2-3.1a75.34,75.34,0,0,1,6-8.09c4-5,3.1-9,3.93-10.6s6.76-14.45,5.32-15.73.17-3.19.17-3.19-5.57-1.48-7.48-1.18-1.51-.07-3.78.21-6,14.9-6,14.9a3.42,3.42,0,0,1-.19,3.59c-1.22,1.93-4.39,5-5.59,6.51s-6.42,7.67-11.1,11-2.69,1.07-4.07,1-6.48-.74-7.63-.4a16.14,16.14,0,0,1-3.79.22l-13.21,8.13-10.38-2.93.47-2c.48-2,1.22-1.95,2.36-1.89s5.06-3.34,6.27-4.88a1.29,1.29,0,0,1,2.25.11s4.72-4.15,6.3-5.67a13.31,13.31,0,0,1,4.68-3,14.31,14.31,0,0,0,3.1-1.84l1.59-1.52c1.58-1.53.7-6.77-1.91-6.9s-9.84,1.1-9.84,1.1a29.14,29.14,0,0,1-10.9-.55,17.52,17.52,0,0,1-8.47-6l2.53-3.07s5.76-2.11,18.75-5.85,5.35-1.73,5.5-4.53a12,12,0,0,0-.52-4.5s-9.27-2.78-17.62-1.6-6.38-.33-6.38-.33L4248,232l2.12-4.69,3.16-3s6.66-4.87,7.82-5.61,4.13.21,4.13.21,15-5.64,15.82-7.59,1.2-1.54,3.2-3.84,0,0,1.22-1.8,4.29-2.72,8.2-5.72,2-1.9,3.19-3.43.08-1.6.24-4.8c0,0-5.17-1.85-6.32-1.52s-6.15,2.49-6.15,2.49a49.79,49.79,0,0,1-11.57,5.41c-7.28,2.43-9.6,3.51-9.6,3.51s-9-1.26-12.37-1,0,0-4.95,1.35,0,0-2.69,1.07-3-.16-3-.16-1.79-1.69-2.86-2.93-.65-2-.65-2l3.43-8.23s4.71-3.75,5.73-5.31,1.91-4.29,1.61-5.86-1.05-5.3-1.05-5.3,2.92-1.85,4.85-3,4.4-5,5.67-7.72a18.53,18.53,0,0,0,1.43-5.92l-4,4.19c-4,4.2-3.62,4.62-6,6.11s-3.14,2.64-6.22,4.07-2,1.51-5.82,3.31-4,3.8-6.19,3.29A4.48,4.48,0,0,1,4228,176c.05-1.93.09-3.85.14-5.76l0,0,1.66-3.11s11.56-12.61,13.91-14.31,8.08-3.77,10.79-5.23,2-2.3,3.17-3,2.83-3.86,5.27-7.33,2.4-2.67,3.56-3.42,1.58-1.52,2.8-3.17,2.69-1,3.87-2.08.95-4,1.41-5.54,1.28-3.13,1.35-4.33.89-2.74,1.35-4.33,1.68-3.52,1.75-4.71-3.66-2.18-3.66-2.18a26.42,26.42,0,0,0-5.06,3.34c-2.76,2.26,0,0-3.2,3.44s0,0-3.28,5.43-9.67,5.11-14.29,7.27c-3.36,1.57-10,9.87-15.38,16.36l-1.87,2.25c.09-.65.31-1.68.7-3.23,2.22-8.73,1.17-14.75.57-22.36s-1.48-5-1.62-11.23,2.14-9.73,2.36-18.31a130,130,0,0,0-1.41-19.21l-.15-11.57c.11-3.82.23-7.09.35-9,.5-8.08,2.65-57.46-1.14-49.77h0c-3.79,7.69-4.18,11.58-4.23,13.67s-.26,10.18-.26,10.18-2.74,13.71-2.78,15.21a109.05,109.05,0,0,0,1.2,11.42c.53,3-.13,5.39-.17,6.89s-1.93,17-1.93,17l-.09,3.59s-1.54,13.74-.5,19.76-.53,10.37-.85,12.36a8.63,8.63,0,0,1-2.36,3.93s-3.29,3.92-6.78-.17a111,111,0,0,1-10.42-14.64A31.45,31.45,0,0,1,4198,84a35.18,35.18,0,0,0-2.5-11.65c-1.12-3.22-1.88-4.85-2.25-6s-1.57-.83-1.65,2.35-1.43,9.15-.27,10.78,1.15,1.64,1.05,5.62l-.15,6c-.06,2.4-.06,2.4.64,6s1.75,10,3.3,11.68,1.91,3.64,3.08,4.87a13.8,13.8,0,0,1,1.93,2.62s2.22,7.07,5.74,10,5.49,3.74,5.46,4.93l0,1.2a8.87,8.87,0,0,1-2.1,5.94s-4.5,2.68-7.63-.19-2.29-4.05-4.69-4.11-2.83,1.52-6.34-1.77-5.89-4.14-7.85-5.78-4.28-4.11-4.28-4.11l-2.34-2.46s-2.61-7.65-2-.44-2.89,8.31-.38,9.57,6,4.95,6,4.95-2.17,6.33-3.38,7.11-5.17-.94-1.67,3.15a21.58,21.58,0,0,0,6.21,5.33c-.4-.3-4.75-3.53,1.64.06,6.69,3.76,7.1,3.77,8.27,5s1.87,4.45,1.87,4.45l2.35,2.05,9.54,1.84s2.46-2.74,2.39.06-2.23,6.73-6.38,6.62-10.61,1.74-15.35-.38a60.05,60.05,0,0,1-11.4-6.67c-2.76-2.08-7.15-1.78-4.82.68s5.45,5.5,6.22,6.64a40.12,40.12,0,0,0,3.51,3.58c1.17,1.23,6.7,3.77,7.46,5s2.74,2.46,4.34,2.1,10,.34,10,.34,2,.92,3.2.08a.37.37,0,0,1,.3-.08c1.84,0,8.39,5.86,9.51,7l.12.12,1,1.1.95,1-.29,5.88-2.93,4.27-9.1-3.43s-7.12-3-8.71-3-8.35-1.81-11.14-2.27a19.69,19.69,0,0,1-7.51-3c-2.75-1.67-2.85,2.33-1.3,4a15.5,15.5,0,0,0,5.49,4.13c2.76,1.27,12.29,3.9,15.5,3.19s4.82-1.07,8.33,2.2a51.87,51.87,0,0,0,8.23,6.62,7.44,7.44,0,0,1,2.36,3l-.22,4.44c-1.56,2.46-3.45,11-3.83,12.08s1.11,3.24-3.3,3.92a144.33,144.33,0,0,1-16,1.59l-8-.2s-2.53,5.53-5.59-.14S4168.2,221,4166.26,219s-5.82-6.53-5.91-2.94-1.76,5.95-.18,7.19,1.55,1.63,3.52,2.87,2.37.86,3.55,1.71c.64.44.36.16.27.07.08,0,.3.24.91.74,1.95,1.66-.87,2.78-3.28,3.12s-5.56-1.34-7.53-2.19-5-2.45-5.13-2.52a52.8,52.8,0,0,0-3.08-4.47c-3.48-4.88-3.9-4.5-6.2-8.15s-1.1-3.63-3.83-6.09-4.73-2.92-6.28-4.56-2,.55-2.05,2.16-.66,2.37-.08,3.18,2.54,2.27,3.31,3.08,2,1.05,2.95,1.68a18.3,18.3,0,0,1,3.87,3.89c.61,1,5.73,11.73,5.73,11.73s0,.6,1.94,2.05,2.57,1.45,3.35,2.28a6.71,6.71,0,0,0,2.16,1.34s1.56,1.35.95,1.74a24.52,24.52,0,0,1-5.44,1.65,13,13,0,0,1-5.38-.13,31.23,31.23,0,0,1-7.92-2.81l-2-1.24-1.75-2-2.67.72s-.52,2-.08,2.81.23,1.54,1,2.48-.8-.08.77,1,.38.83,4.33,2.51,16.46,4.61,16.46,4.61-1.17-1.43,2.6.07,5.54,2.15,5.54,2.15,3.2,3.67,4,7.28-1.83,1.16.46,5.71c2,3.9,1.83,3.35,1.75,3.11l2.85,4.49,2,2.75,3.59.1s1.37,2.72,2.89,3.07.91.91,3.56,2.48,5.07,1,5.64,2.25-1.92,4.73-1.92,4.73,3.85,1.9-2.1-.05-7.12-2.87-8.3-3.5-2.09-.06-3.26-1.28-5-5.22-4.78-.73l.19,4.5s6.13,6.45,7.89,7.7,13.36,4.83,13.36,4.83l3.54,2.48,5,4.33s-3.41,4.1-8.18,3.08l-4.76-1-2.39-.35s-1.51.21-.93,1.29,2.94,2.05,3.82,3a1.91,1.91,0,0,1,.22.25c.15.14.35.36.65.67,2.05,2.15-.93,1.18,2.05,2.15a11.54,11.54,0,0,0,6,.15s.93-1,.89.42,1.42,2.94-1.3,4.07-.33,1.19-2.72,1.13l-2.4-.06s-.9,0-.64,1.48.87,1.52,1.73,2.74-3.28-.39.87,1.22,6.29.16,6.29.16l1.48.7,1.75,1.78-4.82,1.37,0,6.18a37.83,37.83,0,0,1-10.72-2.39c-4.43-1.9-6.2-2.39-9.29-4.26s-1.08-5.95-1.3-10.66-.71-11.43-2-12.46-2,.62-3-.08-1.67,0-1.71,1.3a21.71,21.71,0,0,0-.12,4.7c.27,2.68,1.9,4.74,1.87,5.75s.34.12.6,2.75a31.35,31.35,0,0,1,.21,5l0,1.34a6.42,6.42,0,0,1-6.34-1.51c-3.29-2.76-4.28-3.34-6.25-5.13s-3-1.14-2.91-4.16,2.11-4-1.85-6.42-4.95-3.48-6.9-5.88-.95-2.37-3.57-4.79-3.93-3.79-5.58-4.84-1.35.3-4.31-2.12-3.25-4.44-5.92-4.85a18.24,18.24,0,0,0-4.7-.12s-2.34-.06,0,2,2.65,1.74,5.29,3.49a32.15,32.15,0,0,1,4.93,3.81c2,1.73,3.27,3.44,5.92,4.85s4.33,1.45,6.28,3.85,2.24,4.38,3.2,6.1l1,1.72s1.94,3.07-3.06,1.94S4139,311,4136,311l-6-.15c-1,0,.38-1.67-1,0s-1.39,2,.93,3.05,2,1.39,4.66,1.46l5.37.13c2.35.06,4.7-.22,5.7.15s7.62,3.88,8.61,4.58,1,0,2.64,1.74,7.61,4.22,9.27,4.93.69-1,1.66.72,1.94,3.06-1.77,3.64-1.08,1.54-7.77,1.26-7.64-2.09-10-.25-2.38,1.17-4.42,2.12l-2,1a5.84,5.84,0,0,0,5.3,2.81c1.34,0-1.37.64,3.68.1s7.36.48,7.36.48-1.28-1.67,2.08-1.92,2.33.39,5-.21,3.69.09,5.76-1.87,1.43-3.65,2.06-2,2.29,2.41-.45,4.69-2.09,2.63-3.79,3.93-.63-1.69-1.71,1.3a33.28,33.28,0,0,0-1.48,5.33s3.72-1.25,5.1-2.89-1.7,1,1.39-1.65,1,.37,3.08-2.6.71-1.33,2.09-3-1-1.36,1.39-1.64,3-.59,6,1.16l3,1.75a30,30,0,0,0,3.64,2.11c1,.36,4.48.17,5.07.67,1.73,1.53,2.17,1.22,2.12,3.25-.06,2.39,1.13,2.72-.1,4.19s-2.78,2.92-2.78,2.92-.33,1.49-1.54,1.76-8.51,4.88-8.51,4.88a10.54,10.54,0,0,0-1.23,1.47c-.38.53-.07-.32,0-.45,0,.1-.21.45-.59,1.33a31,31,0,0,1-4.36,6.48l-1.49,0s-3.46,3.81-1.95,4.73a51.61,51.61,0,0,0,5.36,2.54l.56,1.51s0,.9-1.83,1.45-2.79,1.13-4.25,1.1l-5.07-.13c-1.19,0-5.65-1.64-8.94-2s-6-1.05-7.16-1.08-1.53,1.46-8.62-2.61-10.94-6-14.8-7.26S4119.5,362,4118.38,359s-3.49-4-4.95-5.82-4.07-4.89-4.07-4.89-2.83-6.37-3.19-4-.75,5.67-.19,7.48-6.55-1.65-7.08-4.37-1.08-4.81-2.18-8.74-.18-16.78-2.4-11.45-3.18,7.11-2.37,10.72a30.31,30.31,0,0,1,1,7.52c0,1.8.25,2.11-.09,3.9a18.12,18.12,0,0,1-1.66,4.15,2,2,0,0,1-2.34-.06l-1.17-.93-2.37-1.26,0,1.5a2.82,2.82,0,0,0,0,1.8c.27,1.21,1.17.93,2.64,1.86s1.78.65,3.27,1.29a36.07,36.07,0,0,1,3.55,1.88s1.18.63.56,1.52,1.21-.57-.63.87a41.84,41.84,0,0,1-6.07,3.45,5.59,5.59,0,0,0,3.55,1.58l4.19.11c1.5,0,.33-.89,5.7-.45s6.59.46,8.67.81a10.32,10.32,0,0,1,3.87,1.3c1.18.64,2.66,1.56,2.66,1.56l-2.74,1.74-7.49-.19c-2.4-.06-8.38-.51-9.29-.23l-.9.27s-3.35,2-1.26,2.36a104.09,104.09,0,0,0,11,1.48c3,.08,2,2.75,5.05,1.63a12.52,12.52,0,0,1,5.73-1.06l6.28.16c.9,0,3.3-.21,3.3-.21s1.81-.26,1.78.64,1.12,3.33-.08,3.3l-3-.08s.32-.59-1.79,0l-2.11.54s-9,2.47-10,3l-.92.58s-1.24,1.77.24,2.4,2.43-1.13,3.59.09-4.85,2.58,1.17,1.23,3.92-1.1,6-1.35a34.82,34.82,0,0,1,4.19-.19l3.9.1s6.89-2.22,6.95-3.72.4-2.69,2.2-2.64,4.44,2.21,5,3.43,1.43,2.72,1.43,2.72-14.68,11.32-15.84,9.79-3.59,0-3.59,0l-1.35,6.14s0,1.48,2.35,1.54l6.59.17,2.66.07-.16,6.29-2.36-.06-.67,2.68c1.76,1.54,3,1.87,4.46,1.61a36.31,36.31,0,0,0,4.53-1.39l1.51-.56s1.8,0,1.74,2.24-1.94,5.55-1.94,5.55c-1.56,2.65,2.49,8.15,2.46,9.54s4,.51,7.62-1.2,7.71-5,8.67-3.37,1.53,2.62,1.51,3.63-.43,1.38-.68,3.17a16.19,16.19,0,0,1-.25,1.79c-.23,1.19,1.4,8.24,5.18,8.33s4.18.71,6.59.17a45.89,45.89,0,0,1,6.81-.63s1.17,1,3.39-.12,7.85-2,7.85-2a38.09,38.09,0,0,1,2.71,3.53c.18.52.34,2.13.53,2.74s.37,1.21-.85,2.17-2.86,2.33-2.86,2.33-3.24,1.72-3.88,3.1-1.44,1.77-1.66,2.55a13.56,13.56,0,0,1-1.46,2.56,9.17,9.17,0,0,0,4.21,7.51c4.32,2.69,5.52,2.53,6.48,4.36a9.06,9.06,0,0,1,1.07,4.81l-.64,1.79s-.79-.43-.23,1.19-.07,2.79.49,4.2-.48,3.38-.91,4.18a30,30,0,0,1-3.68,3.5,6.27,6.27,0,0,0-1.65,1.95c-.42,1,.14,2.6-.68,3.39s-4.23,1.28-4.23,1.28.7-3.77.92-4.77a21.79,21.79,0,0,0,.27-3l-.56-1.61a21.54,21.54,0,0,0-3.35-1.29c-.6,0-3.44,1.72-3.89,3.3s-.39,0-.43,1.59-.66,2.18-.68,3,.14,2.59-.46,2.58l-2-.05a4.6,4.6,0,0,0-.44,1.79l0,1s-.84,1.18-1.44,1.35-9.56-1-10.58-.27-4.4-.06-4.4-.06-1.42.86-2.4.27-2.37-.83-2.3-3.62a27.16,27.16,0,0,1,.73-5.37s-.19-.22.43-1.19,1.67,5,2.12-4.55.53-13.17.53-13.17l-1.74-2.24s-.18-1-1.43,1.16-1.11,4-1.91,4.55l-.82.58a3.65,3.65,0,0,1-3.12-2.67c-.54-2.41-2.86-5.28-4-7.1s-7.27-4.78-7.27-4.78a17.62,17.62,0,0,1-1.09-4.43c0-1.38-1.34-4-.88-5.81s-1.46-4.22-1.46-4.22a18.7,18.7,0,0,1-4.22,1.09c-1.21,0-3.39-.29-3.39-.29l-4.18-8.9a9.57,9.57,0,0,1-1.88-4c-.74-2.82-1.05-6-1.85-6.24s-2.81.73-2.81.73,1.78.65-2.22.74-3.41.33-6.59-.17a18.13,18.13,0,0,1-5.94-2.14s-2.13-2.45-3.89-4.1,2.12,3.26-6.45-5.35-24.74-17.2-27.92-17.88-6.88-4.17-6.86-4.77-1-1.62-2.31-3.46-2.71-3.45-2.71-3.45-.55-2-1.36-1.44-.41.19-.07,2.79-.09,3.59.87,4.62,1.73,2.64,2.32,3.25.75,2,2.9,3.67,4.92,2.93,5.89,4,5.47,5.13,5.47,5.13l2.7,3.67s-9.83,2-12,1.08a27.8,27.8,0,0,0-4.75-1.71,24.13,24.13,0,0,0-3-.28s-1.42,1.16.93,3,3.71,2.89,4.31,2.91,3.38,1.08,4.57,1.32,11.94,1.69,12.12,2.29a19.77,19.77,0,0,0,1.34,2.44l-7.7,4.4s-.42.59.57,1.21,2.36,1.66,3,1.67.85-2,2,.05,2.64-1.52,1.15,2a8.42,8.42,0,0,0-.16,6.39s2.76,1.66,4.15,1.7a13.52,13.52,0,0,1,3.57.89l.9,4.42s-1.24,1.56-2.24,1.54-1.41.56-2.81.52l-5.6-.14c-1.19,0,.64-1.57-1.19,0a8.22,8.22,0,0,0-2.26,2.54s.36,1.22,3,1.47,1.18.63,5.37.94,6.58.56,7.77.59l4.19.11c1.8,0,3.6.09,4,.7s1.9,3.84-.73,5.19-5.86,2.84-6.66,2.82l-.79,0s-5.28,2.87-2.71,4.13a15.51,15.51,0,0,0,8.36,1.2,29.65,29.65,0,0,1,4.2-.29c2.4-.14,4-.1,4.78.52s2.95,1.87,2.95,1.87-15.52,5.81-17.35,7-3.06,2.62-6.12,4.93-5.8,4.36-7.05,6.42a87.07,87.07,0,0,1-6.18,7.48l-.08,3.15s6.3-.44,7.86-2.8,7.61-4.91,7.61-4.91,1.56,9.34.05,9.9a12.87,12.87,0,0,0-3.35,2.31l-.94,1.48-.37,3s.81,3.32,2,4.55-.36,2.39,3.54,2.18,5.42-1.06,5.42-1.06l2.4.06,1.09,3.58c0-.22,0-1,1.51.09,1.76,1.24,6.26,1.35,8.34,1.7a10.74,10.74,0,0,1,3.86,1.6l3.6.09c1.79,0,.32-.89,4.27-3.18l6.39-3.74s3.57.69,3.55,1.59a8.89,8.89,0,0,0,.54,2.41s1.13,2.72.22,3.3l-.92.57a37.11,37.11,0,0,0-2.77,2.93c-.93,1.18-.38,3.29-.38,3.29s.85,1.81,1.74,2.13a7.5,7.5,0,0,0,2.7.07l2.89,4,.27,1.5a5.68,5.68,0,0,1-1.56,2.35l-.92.58s-.67,3-1.87,3-2.73,1.43-2.73,1.43l-.95,2.08-1.9,3.84s1.2,0,.24,2.41-.1,4.19.79,4.22,8.12-1.3,8.12-1.3,2.51-4.13,1.17,1.53-2,8.33-.81,8.36-.05,1.81,5.09.13a38.61,38.61,0,0,0,7.87-3.39l9.92-1.26,3.29.39,4.35,5.7.56,1.32s-8.06,10.88-10.19,12.33-2.77,2.62-9.65,2.45l-10.78-.28c-1.51,0-4.48-.71-6.29-.15s-19.18.11-22.09-3.56-15.47-16-16-17.18-12.84-13.52-19.21-22.36-9.55-13.43-13.64-17.73-12.57-12.3-16.95-16.91-9.41-7.12-9.43-6.23,1.69,4.24,2,5.15,1.18.62,3.23,2.78,5.78,8.23,5.78,8.23l.25,1.81-4.51.78-2.11.54,1.08,4.83s.55,1.81,2.05,1.85l1.5,0,2,3.64s-1,3.57-.12,4.5c.54.56-.25.19-.33.19.08.06.38.25,1.21.72l2.66,1.57,2.66,1.26s-1.91,4.45-1.93,5.35-1.79-.34,0,.9,2.34,2.15,3.84,1.89a13.2,13.2,0,0,1,3.6.09s1.55-2.35,1.76,1.25-5,9.16-7.13,9.4a34.68,34.68,0,0,1-6.58-.46l-12.1-7.2s-10.72-2.67-18.2-2.86-10.81.93-11.14,1.82-2.43,1.73-.06,2.7a20.77,20.77,0,0,0,6.55,1.66c1.79,0,3.31-.52,3.28.69s-3,1.12.19,3.89,4.14,2.51,5.32,3.13a9.32,9.32,0,0,0,5,1.63c2.7.07,5.76-2.25,5.68.74s-1.9,3.85-2.23,5.34l-.34,1.49-7.89,4-1.85,2s-5.16,2.27.25,1.81,4.8-.18,7.52-1.31l.49-.2c-.1.09-.56.31-1,.56l3.27-1.49c10-4.54,16.63-5.87,13.85-2.65s-4.92,5-6.13,5.54-6.13,5.24-6.13,5.24,2.13,2.46,3.34,2.08,6,1.44,7.19.22,2.46-2.57,2.46-2.57a9.48,9.48,0,0,1,1.64-1.76c.61-.39,4.41-.48,4.41-.48l5.16.92,5.3,3.93,3.53,2.28,6.77,1.37.44,6.21,0,1.4s0,.6,0,1.39,1.34,2.24,1.34,2.24,3.58.69,4.74,2.32,1.33,2.22,1.32,2.82a12.44,12.44,0,0,1-.08,2.8c-.21,1,1.26,5.82,1.26,5.82a27.82,27.82,0,0,0,10.78.28c5.62-1.06,7.16,1.37,7.51,3s2.43-1.14.37,1.62l-2.07,2.74s-5.65,1.85-8.06,2.58a10,10,0,0,1-5.18-.13l-3.68,2.53-.8.56s3,3.72,4.51,3.31,1.8.12,4.34.15,3.44.43,4.19.1,9.43.38,9.43.38,1.22-.74.12,1.17-6.26,5.1-6.58,5.53l-.31.44s-.62,1,0,1.35,1.52-.57,2.7.07,2.7-.41,3.29.14,1.79.17,1.79.17a2.23,2.23,0,0,0,1.34.19c.6-.17,3.75-.21,4,.16a3,3,0,0,1,.85,2c0,1.06-.16-.15,0,1.06s.42.9,1.16,1.52,2.82.51,3.57,1,1.23-1.47,1.61,1.23-1.09,13.76-3.19,13.71-4.86,2.57-7.56,2.8-.21-3.6-3.89-.1a43,43,0,0,1-6.13,5.24l-.91.58s0,1.79,4.14,1.9,3.61-.21,7.19.18a28.44,28.44,0,0,0,5.69.15s1.31-4.2,2.39.19l1.09,4.4s6.5,3.75,7.7,3.78l4.78.12,3,.08,3.6.09s1.73,2.44.5,3.61-1.28,3.26-2.8,4.12-12.55,1.78-13.64,1.76l-1.09,0s-1.83,1.45-.65,2.08,7.45,1.68,11.64,2.09a24.56,24.56,0,0,0,5.69.14l2,2.45.53,3a4.52,4.52,0,0,0,2.39.06c1.8-.26.88.59,4.78.26s3.63-1.33,5.69.25,3.52,3.44,3.47,5.24-.81,8.37-1.71,8.34-1.81.55-3-.07-2.67-1-6.59.09-3.3,0-6.35,2.28-9,.07-11.08-.28-5.22-3.43-6.28-4.65a74.86,74.86,0,0,0-7.19-8c-5-4.92-7.66-5-12-10.49s-1.16-1.23-7.3-7.37-8.85-5.32-10.81-10.77-2.35-2.15-4.86-9.11,1-5.67-3.67-9.07-.55-2.12-9.42-6.54-13.87-8.74-16.79-11.81-8.5-7.4-10.86-8.37-7.94-6.19-2.72.84,3.49,4,5.21,7a20.83,20.83,0,0,0,5.53,6.74c2.05,1.55-.48-5.1,4.39,3.71s14.17,8.44,3.36,9.67-11.12,1.21-12.92,1.17.07-2.69-4.79-.12-5.5,4.36-4.61,4.68a15.94,15.94,0,0,1,2.36,1.25,14.27,14.27,0,0,0,5.35,1.94l3.59.09s.9-.28,3.26,1.28a35.49,35.49,0,0,1,5,3.43l2.64,2.16s8.3,3.8,8.87,5,1.06,5.42-.77,6.58-.58-.91-1.82,1.15-3.64,1.41-1.32,4.46,5.6,3.74,7.37,5,2.67.67,3.23,2.18,2.64,2.46-.11,4.49c-1.81,1.34-4.15,2.67-4.14,3.62-6-2-19.79-5.89-22.08-5.38-6.55-2-10.75-1.47-15.5-3.09s-5.61-3.44-9.21-3.23-8.39-.27-11.68-.34-8.42,1-6.93,1.67,2.65,1.83,6.22,2.84,4.46,1.32,7.15,1.39,1.09.07,6.84,2a26.41,26.41,0,0,0,6.1,1.29,6.4,6.4,0,0,1-2.3,2.61,11.78,11.78,0,0,0-2.89,3.91c6,1,8-1.39,8-1.39s.35,2.48-2.94,6.15-4.14,5.66-4.19,7.65-1.59-.44-.05,2,4.77.92,6.78.17,9.66-2.55,9.66-2.55,1.63-1.16,2.36,1.26.44-1.19.74,2.41a28,28,0,0,1-.16,6.38s-2,.35-.05,2,1.91,3.64,5.12,2.52,5.32-4.66,5.32-4.66,2.45-1.94,2.39.45,2.35,2-.12,4.77-3.58-.46-4.18,7.11a54,54,0,0,1-1.08,6.68c-1.08-2.48-2.18-4.45-3.35-5.19-3.94-2.49-15.53-2-23.33-9.37s-18.12-12.84-17.18-9.22,4.56,8.94,4.78,9.28c-.2-.08-2.58-1.12,1.55,2.06,4.32,3.31,6.73,3,6.68,5s2.43-1.53,0,2-5.39,7.45-7.82,8.58l-2.43,1.15s-1.29,3.95,4.74,2.51,13.26-3.26,13.26-3.26c2,0,8.35,1.41,3.81,7.68s-5,8.27-5,9.46a16.67,16.67,0,0,0,.7,3.62s1.55,2,2.74,2.46,2.69,4.07,2.65,5.66,8.93,10.22,8.93,10.22,1.22-.76,1.16,1.63.69,4-.15,5.58-.87,3.18-1.35,6.37.33,2.4-.54,5.17,2.95,10.06,2.95,10.06-4.41,4.49-1.19,7.57,3.53,2.79,6.55,1.67,10.26-2.74,11.74-2.4,6.24,2.25,6.24,2.25,4.43,2.52,4.4,4a11,11,0,0,1-.71,4.17,34.2,34.2,0,0,1-2.23,5.34c-.63.88-2.18,3.24-3.69,3.5s-2.37-1-4.19-.1-1.47-1.14-3,0-4.28,3.14-4.28,3.14-.82-3-.9,0a3.49,3.49,0,0,0,2.31,3.66s.23,2.71.2,3.9v.35l0,.85c-.06,2.39,3.49,4.28,6.18,4.35a21.72,21.72,0,0,0,7.22-1.31c.76-.29.68-.29.65-.29s.22-.08.87-.27a32.92,32.92,0,0,0,3.63-1.41s-.56-1.52,6.65-2.53,11.44-1.81,12.33-1.79a21,21,0,0,1,3.87,1.3s-10.41,8.73-11.32,9-7.6,4.61-7.63,5.5l0,.9a29.74,29.74,0,0,0-2.17,2.94c-.94,1.47-5-2.52-.94,1.47s8,3.5,8,3.5l2.1.08s1.84-1.72,2.4.06a15.67,15.67,0,0,1,.49,4.18l-1.24,1.47s8.43-1.39,12.18-7.68,11.74-6.5,11.68-4.11a15.57,15.57,0,0,1-2.59,7.54c-1.23,1.56-2.49,3.93-3.3,4.7s-.85,1.57-1.72,4.36-1.27,3.16-.91,4.76,2.29,4.06,2.25,5.65c0,1.06-2.88,4.46-2.94,4.65.13-.09.92-.93,2.9-3.05,6.57-7,7.08-11.4,7.08-11.4s3.29-3.92,4.5-3.89,5.59.14,5.54,2.14l-.24,9.58c-.1,3.59.57,5.1-1.83,7.09A19.35,19.35,0,0,0,4092,911s-3.25,2.73.31,4,8.71,3,8.71,3,3.62-1.11,1.1,4-4.23,5.88-7,7.42-8.05,3.78-8.05,3.78-.86,2.38-.49,3.59,0,1.59,5.85,5.33,5.44,6.55,4.24,6.51,0,1.2-6.79-.17-8.37-1-11.5-3.09,10.07-3.74-7.09-4.17-14.41,1.23-22.73-1.78-11.87-4.29-17.42-6-20.73-17.69-21.39-7.32c-.45,6.91,3,8.59,5.28,9.43a9.52,9.52,0,0,0-.14,2.53c.28.77,2.27,4.85,2.68,6.82a21.59,21.59,0,0,0,2.11,5.14,15.92,15.92,0,0,1,1.23,4.83,25,25,0,0,1-2.19,3.84c-.19.26,0-.39.05-.54a9.49,9.49,0,0,0-.37,1,22.69,22.69,0,0,0-.91,6.13,29.07,29.07,0,0,1,.23,3,15.31,15.31,0,0,1-.84,3.72s-.95,2.07-2.41.54-3.49-4-3.49-4-8.1.24-10.38-4.6-7.77-6.79-8-5-.79,1.62-.22,2.68a12.15,12.15,0,0,0,2.76,3.52,37.85,37.85,0,0,1,3.8,3.7,59.63,59.63,0,0,1,4.38,4.75c.57.91,0,.74,3,1.87s7,2,7.43,2.13a7.29,7.29,0,0,1,1.88,2.74c.57,1.22-14.53.09-16.63,0s-3.28-.68-4.21.49-8.19,4-1.32,4.76,14.34,1.86,14.34,1.86,1.51-.55,4.15,1.61,5.31,3.43,6.48,4.66,4.06,5.2,4.06,5.2l-.44,5.68s-2.78,3.22-4,3.49-.24-2.1-1.2.27-4,4.39.17,5.09a75.54,75.54,0,0,0,9.87.85l3,.08a6.86,6.86,0,0,1,1.4,3.93c-.05,2.09.25,2.1.18,4.8s-1.55,2.06-1.6,3.85,11.46,9,11.46,9,.93-1.17-.05,2.1-1.36,6.26-5.55,6.15-6.46,6.73-10.48-.26-9-10.42-12.3-11.4-8.68-.22-10.71-3-5.52-6.73-8.14-9.79-8.22-6.8-9.94-9.84-3.49-4.88-7-8.27-3-1.27-6.74-5.57S3951.39,975,3944.78,968s-12.64-5.91-12.64-5.91-3.2-.08-.12,4.78,5.8,7.75,7.77,9,6.69,3.76,8.62,6.6,3.47,4.89,3.47,4.89l.34,2.41-4.84,1.46s-3.18-.08-2,2,9.07,4.63,10.66,5.07,4.75,1.71,4.75,1.71l5.07,4.92-.5,4-.08,3.19a42.75,42.75,0,0,1-8.41,1c-3.6-.09-5.21.28-7.19-.18a42.39,42.39,0,0,0-6-.55l-1.65,2s.35,2,6.33,2.57a107.08,107.08,0,0,0,10.77.66l10.78.27c2,.05,4.8-.27,5.54,1.74s3.5,3.69,1.49,4.83-7.72,4.6-13.71,4.45l-6-.15s-2.9,4.32,1.49,4.43,1.19.43,8,.2,8.81-.16,10-.13,4.35,1.7,4.35,1.7a8.2,8.2,0,0,1,.72,3.21c0,1.6-.88,3.17-4.52,4.68s-10.54,6.52-6.95,6.61l18.36.46,5.19.13c3.59.1,3.76-6.29,4.79.13s-1.32,4.76,1,8.82,13.3,11.51,13.3,11.51-29.39,1.27-33.75,7.75l-4.36,6.48s-.68,3.58,4.1,3.7,12.61-.88,15.58.39,14.37.37,14.37.37a5.15,5.15,0,0,0,4.71,3.11c3.59.09,10.75,1.47,12.49,3.91l5.21,7.32s3-1.71,4.79.13,9.49,3.83,11.85,5.09-8.68,11.77-8.68,11.77c13.69,3.34,10.82-1.53,13.69,3.34s2.28,4.85,2.8,7.86-16.33,6.18-18.13,6.13-4.78-.72-6.59-.17.68-3-1.81.56c-1.34,1.9-1.06,1.59-1,1.55l-1.48,2c-3.1,4.12-1.17-1.23-3.1,4.12s-.19,7.18-2.05,9.53a19.24,19.24,0,0,1-4.89,4.07s-1.9,4.15-3.71,4.7-3.54-2.48-8.47,2.78-9.13,5.77-9.24,10-12.74,6.27.36,9.59,15.08-3.8,16.91-5,3.63-1.46,5.83,6.27,3.35,9.54,7.53,10.25,6,.15,7.79.2-8.33-2.69,7.18.44,15.42,6.12,20.21,6.24,4.23-1.09,9,.23,8.81,6.81,8.81,6.81-5.46,10.24-6.4,16.21-1.4,8-.22,8.38,11.49,3.9-.89,3.58-9.12-2.63-18.76-.47-21.63,2.25-25.23,2.16-9.13-1.83-13.17-.33-34.77.32-36.73-.93-8.37-.62-11.88-3.9-1.53-2.84-13-7.12-10.71-3.06-22.6-7-17.47-4.45-28.11-10.3-12.09-11.5-19.62-14.08-14.08-11.94-11.11-2.68,16.6,22.4,17.76,24,3.91,3.69,3.87,5.29-.88,3.18-1.34,5.56-4.08,2.69-.58,6.78,6.65,5.75,10.22,6.65-1.11-3.23,7.59.19,10.73,2.27,11.06,5.08.37,1.2-.13,5.18,1.43,6.44,5.41,6.93-1.15-2,6.79.17,10.6,7.46,9.77,8.64-18,.74-22.44,2.63-6.82,1-5.69,3.85,4.34,2.51,6.3,3.75,8-1.39,9.58.25,14.31,2.75,14.31,2.75,1.14,2.44,5.46,5.34-6.85,2.22,11.92,2.69,18.73,2.12,20.75.56,3.22-.48,5.18.84,22.45,13,25.59,14.7-8.37-.63,5.53,2.93,17.59-.36,29.54.74,23.36-7.41,28.77-.07,12.2,7.1,14.16,8.74a20.8,20.8,0,0,1,3.49,4.1s-35,7.9-51.36,8.68-58.78,2.5-66,1.93-18.79.72-28.21-5.9-15.74-9.2-22-13.75-47.86-19.18-51.4-21.27-22.43-13.75-25.11-18.22-10.31-19-11.24-13.86-1.43,9.15-.26,10.38,3.15,2.07,4.65,5.71,4.52,10.9,5.66,13.32,2.31,3.26,1.08,4.42-.08,3.2-4,2.3-10.36-1.07-11.55-1.28-3.81.69-3.81.69l-.06,2.4c0,.4,1.94,1.84,3.35,1.88s4,.3,5,.33,5.38.53,6.18.55,15.47,4.39,15.47,4.39l3.39.48s-4.38,7.29-6.8,8-7,2-8.44,2l-6.19-.16c-1,0-2-.45-2.79.12l-.82.58-.9,3.58s-.22,1,1.18,1,4.42-.89,5.83-1,7.78,0,7.78,0,7.43-1.82,9.45-2.56,4.07-3.09,4.69-3.68,4-1.49,4.64-1.48.17,8.59-1.26,9.36-.4.79-2.82,1.52-2.8.13-3.83,1.1-1.24,1.57-1.85,2-.07,2.79.94,3,.69,3.71,4.15,1.35,9-6.61,9-6.61,0,.8,1.61-.56a48.66,48.66,0,0,1,4.47-3.07s1.42-.77,1.39.43,1.75,2-2.32,4.74-10.86,10.9-12.14,14.06a25.71,25.71,0,0,0-1.28,3.17c-.65,2-2,2-.68,3.17s2.54,2.67,3.53,2.69,3.28-3.3,7-6.62,11.59-8.09,12.62-9.06a24.34,24.34,0,0,1,2.85-2.32c.81-.59-2.81,8.52-6.5,12.41s-7.33,5.42-3.83,9.1l2.55,2.68c-22.72,5.66-34.91,14.34-63.86,23-40,12-60,20-104,40s-124,72-172,97.44-68,22.56-140,58.56-48-4-92,0-80,12-108,21.5-104,34.5-168,70.5-217,86.83-217,86.83c-12.84,46.82,21.71,85.66,80.29,117.24H0v154.93H5000V1870.94Zm581.83-566.07c1.31.48,7.44,1.51,9.62,2,1,.22,2.79.56,5.1,1.07-6.57-.43-12.71-.88-18.54-1.23a12,12,0,0,1-1-2.41C4521.7,1297.22,4527.23,1304.4,4528.54,1304.87Zm-29.78-5.15c.95-3.06,2.62.51,5.66,2.35s5.26,1,8.3,2.4a6.84,6.84,0,0,1,2.41,1.76c-5.55-.21-10.86-.27-16.06-.08A7.74,7.74,0,0,1,4498.76,1299.72Zm88.48-342c.39-2.17.78-4.51,3-5.63s1.87-2.3,4.4-2.24,3.29,3.61,5.54,7.19,3.81,14.85,1.14,14.79a6.11,6.11,0,0,1-5.63-3c-1.77-2.73-3.06-4.94-4.87-6.33S4586.85,959.87,4587.24,957.7Zm-11.48,20c2.28-1.74,3.2-2.61,5.43-2.56s4.88,1.92,6.21,2.4,6.51,7.77,8.69,10.06.77,5.67,4.26,8.61c4.38,3.69-4.12,3.48-7.22,2.5s-4-.54-8.89-2.46-1.74-1.83-2.59-3.64-4.83-3.7-7-5.55-2.61-2.75-2.56-5S4573.48,979.39,4575.76,977.66Zm-6.65,15.49c1.4-2.65,0,0,1.78,0s2.64,1.85,3.93,4.13,4.83,3.7,6.57,5.53c0,0,2.52,6.33,1.55,9.44s-4.16,5.26-7.79,7.41-3.12-.53-4.43-1.91.08-3.13,1-5.79a11.39,11.39,0,0,0,1-5.34c.07-2.68-2.13-4.08-3.87-6.36S4567.7,995.79,4569.11,993.15Zm-53,24.6c.08-3.12,5.45-3,6.78-2.51s2.6,3.2,4.35,5,4.39,3.25,9.66,7,3.51,2.77,5.23,5.5-.59,8.68.2,9.85c15.1,22.31-6.62,14.15-6.62,14.15s-1.71-3.17-1.66-5a9.3,9.3,0,0,0-.81-3.6s-7.44-6.45-10.07-8.76a30.73,30.73,0,0,1-6.47-9.56C4515.88,1027.6,4516.05,1020.89,4516.13,1017.75ZM4241.26,247.44c1.56-1.81,6.42-1.69,9.27-1.62s2.14,1.13.75,3.71c-1.2,2.22,1.09,5.07,1.09,5.07a19.14,19.14,0,0,0-.79,2.83c-.38,1.84-1.2,1.14-2.23,2s-3,.93-5.55.7,0,0-.65-.86-.12-2-.94-2.87-2-.9-2.64-1.41-.8-1.87-.94-2.71S4239.71,249.24,4241.26,247.44Zm-46.45,18.81c-3.36.36-6.7-.17-9.16-.23s-7,1.61-13.37-2.13a15.36,15.36,0,0,1-1.93-3.4c-.41-1.36-2.14-3.86-2.34-4.76s-1.1-.92,1.18-2.43,1.64-3.09,3.39-1.48l1.75,1.61a9.17,9.17,0,0,0,2.18,2.29,31.36,31.36,0,0,0,3.3,2c.67.34,1.79.37,5.12,1.34s4.67,1,6,2.17,2.39,2.74,3.28,3.21,1.14-.86.88.47S4198.18,265.89,4194.81,266.25Zm-26.3,137.82c-1.09,3.32-3.39,1.25-8.4-.22S4155,394.66,4156,393s-.58-3.7.2-8.05,1.34,0,2.35.06l6,.15c3.69.1,3.19,6.46,4.46,7.5s.65,2.7-.42,5S4169.6,400.74,4168.51,404.07Zm13.23,20.8c-.73,2.33-.69,1-1.76,3.31s-1.73,2.31-3.45,3.68-1.91.55-2.67,3.88-1,.54-3.37.48-.55-4.38-.53-5.38a28.53,28.53,0,0,0,.72-6.25c.29-5.7,2.88-7.64,2.92-9.32a70.25,70.25,0,0,1,.52-7.37c.43-3.68,2.62.07,2.62.07a30,30,0,0,1,4.38,1.78c3,1.42,1.26,3.39,1.86,7.1S4182.47,422.54,4181.74,424.87ZM4196.41,384c-.59,1.92.05,2.95-2,3.9s-3.09,2.94-5.4,1.21-2-1.73-4.29-2.79-.18-6.05,4.51-5.93c2.38.06,3.74-1.92,4.7.12S4197,382.12,4196.41,384Zm-8.67-10.36c.52-.92.41-3,2.45-4.3s3.07-1.6,4.4-1.57,4.05-.57,5.71.15,4,1.77,4,1.77,1.6,3.07,1.56,4.41.59,3.37-3.78,3.93S4185.28,378,4187.74,373.68Zm-80.13,113.83-5.47,3.89-1.38,1.76.36,3.14s.38,2.69-.55,4-3.23,3.95-5.92,4.33a41.5,41.5,0,0,1-6.72.27c-1.34,0-1.93,5.32-3.58-.09s1.23-13.39,1.23-13.39c8.61-4.25,11.8-6.41,13.18-7.72s3.66-3.49,5.45-3.44l6.26.16,3.06,2.76S4109.43,486.22,4107.61,487.51Zm-11.55,311.76c-6.6-7.36-9.32-10.62-9.32-10.62s-.24-6.4-1-8-22.28-3.37-29.46-3.55-10.14,5.34-14.78-.37-2.7-4.07-6.18-8.55c-1.91-2.47-3.74-8.44-5.65-13.73a18.69,18.69,0,0,0,1.63-1.15c6.53-5,11.42-8.9,11.42-8.9s-4-1.7,2.85-2.33,9.14,2.23,9.09,4.23,1.57.83-.11,4.39-2.49,3.47-2.93,4.89-2.39-.23-.43,1.42,13.18.33,13.18.33,1.16,1.06,2,.76.25-10.28.79-.29,2.92,11.26,4.1,12.09,7.68-3.8,7.68-3.8.88-3.18,3.65-2.3,7.43,6.67,7.43,6.67,10.19,7.75,13,7.82,4.46-3.07,6.38.16-.78-.81,2.17,9.25,4.91,10.91,5.68,12.13,3.15,2.08,4.34,2.5-4.28-7.29,4.66,3.72,23,9.37,25.29,12.23a68.69,68.69,0,0,1,5.28,8.55c-.94-.48-2.77-.9-6.27-1-8.79-.22-18-.06-21.48-3.74s.14-5.59-10.12-10.25-9.89-4.23-13.82-6.73S4102.67,806.62,4096.06,799.27ZM4030,965.8a12.88,12.88,0,0,1-1.22-1.64c-1.91-3.25-3.87-4.89-4.22-6.9s-1.13-2.43-1.06-5.22c0-1.47-1.21-4.69-2.37-7.76,6.22,3,14.16,1.6,15.66,3.44s3.1,3.94,3.1,3.94S4053.15,963.58,4053,968s-7.22,1.4-12-.3A43.09,43.09,0,0,0,4030,965.8Zm45.67,55.87c-3.23,1.13-6,.25-8-.2s-1.52-2.83-4.24-6.1-7.71-11-6.87-12.55,1-6.38-1.44-6.44l-2.4-.06-2.77-.86-.3-3.6s-4,.69-5.26,2.26a24.59,24.59,0,0,0-2.52,4.74c-4.16-8.91-4.07-12.5-4.07-12.5l.06-2.4s-.31-3.6-.28-4.8-.85,2-1.51-3.63a12.14,12.14,0,0,0-3.36-6.8,5.38,5.38,0,0,1,2.71,1.15c3.92,2.94,5.55,1.78,7.51,3.42s-.15,5.6,8.15,9.4,12.3,3.1,12.26,4.71a8,8,0,0,0,1.09,4.41c.77,1.22,2.31,3.26,2.27,4.85s-.09,3.6.68,4.82a16.57,16.57,0,0,0,2.32,3.26c1.17,1.22,5.1,3.32,6.23,6.15s1.51,3.24,1.44,6S4078.88,1020.55,4075.66,1021.67Z"/><path id="layer_2-3" data-name="layer_2" class="cls-1" d="M3946.71,1870.94c90.65-21.73,173.13-44,226.29-64.07,180-68,632-248,652-277s76-155,76-155-172-76-255.11-68a575.8,575.8,0,0,1-67.83,2.71c-.51-.19-.93-.32-1.24-.41a49.37,49.37,0,0,1-6.51-3.24s-6.52-3.69-9.23-6.82a6,6,0,0,1,5.24-9.56l2.64.07s14.92,1.25,16.68,1.3a30.45,30.45,0,0,1,7.46,1.07c4.37,1,3.47,1.85,4.77,2.76s2.15,1.82,4.31,3.18,14.12-1.84,14.12-1.84l-6.94-3.69s-4.81-1-7-2.25-2.54-4.15-1.21-4.56a24,24,0,0,0,3.57-1.67,33.07,33.07,0,0,0,3.95.54c1.32,0,13.64-.53,13.64-.53a96.84,96.84,0,0,0,8.5-5.31,2.63,2.63,0,0,1,3.5.09,23.58,23.58,0,0,1,7.05.18c3.06.73,8.85-2.17,10.17-2.14l3.08.08c1.31,0,5.36-3.82,4.55-6s-4.31-3.79-4.31-3.79l-8.37.23s-11.84-1.45-14.51-.1-17.54-1.87-18.9-.14-12.28-1.63-14.95-.38-29.33,11.14-31.1,12-17.65,1.76-17.65,1.76-19.12,8.31-20.43,7.84-10.12.18-14.07-.36-8.3-2-18.76-6.19c-9.08-3.67-11.68-.86-13.63-.39a52.46,52.46,0,0,1,1.47-8.15c2.05-7.09,4.1-2.8,6.35-2.68s6.48,5.72,6.48,5.72,15.74,1.4,17.46.88.34-6.58.34-6.58-2.89-9.73-2.8-11.53.27-5.39.39-7.78-3.73-4.38-7.11-4.56,38.59-14.84,42.62-16.43,7.74-8,7.74-8a11.34,11.34,0,0,0,6.77.36c3.44-1,7.09-6.25,7.09-6.25l1.34-4.14s1.9-4.09,2-5.89,1.64-10.11,1.83-13.7,2-6.49,24.69-19.14c8.86-4.94,11.85-6.51,12.31-6.77-.57.25-4.51,2.15-3.54.62,1.85-2.91-.22-6.62-.7-8.44s.28-5.39.31-6,.9-6.55.9-6.55l2.4-2.88,4.75-4.55s-.29-5.41-.16-7.81-3-8.54-3-8.54l-7.5,3.21-3.54,2.83-9.9,6.1s-13.73,3.5-17.12,3.32-9.19,3.13-21.9,8.75-11.37,1.56-16.9-.86a15.75,15.75,0,0,0-10.71-.54l-8.43-.42s-24.75-2.12-27-1.64-14.07-.71-19.71-1-7.29-1-15.75-12.19-6-22.11-6-22.11,2.91,1.75,3.94,3.8,5.63.29,7.13.36l8.27.42,13.15.67a11.24,11.24,0,0,0,9.25-4.33c1.2-1.54,1.64-2.72,6.54-2.87s2.23.51,2.23.51,4.69,4.24,8.38,5.64,6.57-3.67,6.57-3.67-2.42-4.13-2.35-5.32-2.82-3.74-2.82-3.74l-1.12-7.66,1.22-1.91,3.11-1.87,2.53,2.16,2.66-.48s2.18,1.49,3.37.16,5.64.29,5.64.29l-2.13-2.71s-2.34-5.72-2.22-8.11.85-2,.85-2,3.76.19,4.85,1,5.58,1.08,7.41,2.38a33.93,33.93,0,0,0,11.1,3.76c2.63.13,5.6,8.28,9.44,6.88s5.45-10.92,0-14-8.86-14.65-4.43-24,5.25-3.33,16.63-5.15,7.73-7.41,7.73-7.41l2.25.11s.22-4.19.3-6,.9-6.56.9-6.56a74.28,74.28,0,0,1,3.88-10c2.54-5.26,6.39-3.26,6.39-3.26a19.28,19.28,0,0,0,8.07-3.2c4.09-2.78,2.87-1.06,6.94-3.24s2.91-1.65,3.77-7.62c0,0,13.18-3.52,17.82-6.29s-2.6-4.32-2.6-4.32l-4.48-.83c-4.49-.83-4.9-3.26-10.74-10.74s.93-7.16,1.76-12.51-2.81-22.34-6.7-23.74,0,0,.3-6,0,0,.7-2.35,11-5.45,17.11-14.73-11.14-3-24.55,5.35a177.12,177.12,0,0,0-41.6,35.08c-14.67,16.65-81.3,49.86-87.26,56.15s-2.82-.14-2.82-.14-39.22-6.19-43.13-7c-2.94-.58-3.69-.4-3.88-.27,1-1.22,14.06-17.26,20.65-18.66,6.86-1.45,9,.46,16.49-2.17s20.79-9.15,22.69-13.24,2.82.14,2.82.14l13.73-3.5s4.19-4.59,5.4-6.33,3.13-5.84,6.61-18.86.48-9.56.57-11.36,2.53-5.27,2.53-5.27l2.81.15s8.37-9.18,12.45-11.66.26-5.1.36-6.89-1.55-3.07-2-5.5,4.22-5.19,4.22-5.19a59.44,59.44,0,0,0,8.57-2c5.16-1.54,6.62-8.07,6.62-8.07a19.47,19.47,0,0,0-7.17-3.36,72.46,72.46,0,0,1-11.14-3c-6.67-2.14-2.08-3.71-2.08-3.71s3.69-5.8,6-6.89,13.61-1.11,19.28-1.43a94,94,0,0,1,12.13.32s-4.33-3.81-5.11-5-9.29-.78-9.29-.78-6.49,0-8.11-.11a14.75,14.75,0,0,1-5.34-1.77c-1.1-.66-3.75-4.08-2-5.19s0,0,.34-1.19-.32-4.82-.32-4.82l-3.78-3.48a11.1,11.1,0,0,1-2.6,1.07c-1.14.23-5.73,1.8-6.86,1.74a4,4,0,0,1-3.26-2.56c-.49-1.52.71-3,1.32-3.83s12.3-10.38,17.28-19.72,2.79-10.26,6.91-17.24-1.27-4.86-14.84,10.44-28.07,33.77-34.64,44.63-9.34,5.92-21.2,17.32-7.76,4.41-17,7.94-14.72,8.05-20.47,17.36-5.49,4.51-10.79,5.05-26.21-2.93-29.09-5.48-3.75-.19-3.75-.19L4373,901c-13.28-5.47,15.46-9.71,15.46-9.71s9.61-5.81,16.92-10.84,1.24-2,1.24-2l1.21-1.74c1.23-1.73,1.23-1.73,2.13-2.88.39-.5,2.81-1.07,5.5-1.53-1.31-1.67-2.89-4.12-2.86-5.17a33,33,0,0,1,1-4.9l5.84-1.19a22.3,22.3,0,0,0,6.23,1.5c2.68.06.85,1.81,3.4,7.24a5.85,5.85,0,0,0,.29.56c4-1.24,9-3.37,11-6.08h0l-5.67-4.61-3.94-3.24-3.54-1.88s-8.83-4.7-9.24-6l-.82-2.7,4.47.11,5.36.14,6.27.15a23.09,23.09,0,0,1,6.21,1.95,23.6,23.6,0,0,0,5.16,1.35c2.72-1.56,6.48-2.4,8.53-3.45a30.71,30.71,0,0,0,5-3.35,50,50,0,0,0-6-1.83c-1.78-.5-20.36-8.57-20.36-8.57l1.79,0,6.3-1.63s16.58-.92,17.93-1.33a25.67,25.67,0,0,0,3.62-1.7l2.5.06c.68-.83,1.62-1.71,2.68-2.9a6.66,6.66,0,0,0,1.51-3.37c-.82,0-1.57.07-2.06.06-1.79,0-2.69.38-5,1.22a13.13,13.13,0,0,1-5.39.75l-9.83-.25c-1.8,0-4.9-1-6.24-1s-8-2.89-10.61-5.2-1.73-2.27-1.73-2.27,1.8-.41,5.8.59,7.56,2,11.56,3,4.47.11,10.73.27,6.31-1.63,8.56-2.47c1.52-.56,5.67-1.86,8.24-2.66a14.2,14.2,0,0,1,2.77-2.89,35.14,35.14,0,0,1,4.37-2.76c1.45-.83,1.58-3.52,3.1-5.55s.26-5.08.26-5.08-10.26,1.87-11.41,2.42-3.49,1.93-7,3.83-4.31,1.59-6,1.51l-16.62-.85c-2-.1-1-1.86-1-1.86a47.87,47.87,0,0,0-5.17-3.85,2.39,2.39,0,0,1-1.57-2.48c0-.9,1.87-3.51,3.34-4.66s1.71-.18,1.71-.18,7,1,8.72.44,3.39.17,4.79.24,3.27-3.13.62-6.56-7.61-.39-7.45-3.58,1.24-1.93,4.05-5.39c2.67-3.29,2-1.31,1.94-1.11a21,21,0,0,1,2.74-2.24c1.17-.76,1.33-3.94,1.76-5.11s.15-2.81.65-5.18.51-2.77,1.64-2.72,2.71-1.46,2.71-1.46l4-4.19c4-4.21-.2-3.61-.82-6s-3.48-5.78-4.52-7.44-.65-2-.65-2a15.22,15.22,0,0,1,2.47-4.28c2-2.69,2-1.89,5.23-6.54s2.18-5.89,3.08-8.63-2.69-2.93-2.69-2.93a138.57,138.57,0,0,0-10.93,11.44c-4,5-5.93,5.69-16.93,14.74s-20,8.58-24.29,11.15a39.24,39.24,0,0,1-10.36,3.87s-21.17,9.34-23.83,9.61-9-.46-10.89-.56l-7.14-.37-2.4.34c.05-2.7,7.6-3.71,7.6-3.71l5.21-4.66.95-2.08s.38-3.28,1.58-3.25a32.3,32.3,0,0,0,5.12-1.07l3,.07c1.2,0,6.34-1.63,6.34-1.63s.69-3.58,1-4.47,3.32-.82,4.21-.8a13.52,13.52,0,0,1,4.76,1.33,7.74,7.74,0,0,0,3.88.69,17.9,17.9,0,0,1,3.32-.81c1.8-.26,1.25-2.07,1.28-3.26s-9.12-6.52-9.12-6.52-4.43-2.82-2.27-5.46,0,0,1.84-1.15,2.46-2.63,4-3.19.65-1.78,1.58-3,4.32-5,5.55-6.16a8.71,8.71,0,0,1,5.17-2.86c3.31-.82-5.09-3.93-5.09-3.93s-7.72,4.6-9.75,6.15A103.52,103.52,0,0,0,4390,726c-2.88,3.11-13.34,6-16.57,7.14s-15.86,11.21-18.72,13.93-10.52,4.93-11.73,5.3-18.42,2.33-23.23,2.61-6,1.45-12.89,4.07-22.57,4.08-24.23,3.37a15.55,15.55,0,0,1-1.56-.91l.12-2.39.91-10.35s2.41-3.08,5.79-2.9,15.77.78,15.77.78,1.48.48,4.64-2.55,0,0,.46-1.58,2.16-5.49,2.16-5.49l2.26.13L4317,735s11.26,1,13.9.7,5.76-2.11,7.3-2.83,8.78-10,8.78-10l4.14.22c2.26.11,0,0,7.54-.43s3.39.17,5.27.27,3.12-2.23,3.12-2.23l1.18-1.15c1.2-1.15.13-2.39,2.07-3.49a16.09,16.09,0,0,0,2.74-1.87l3.37.17c1.13.07.58-4,.58-4a15.58,15.58,0,0,0-3.43-6.57c-2.85-3.34-1-6,.84-14.84s1.71-.24,4.23.2,16-4.29,16-4.29l3.44-6.42-5.36-4.68s.1-4,.15-5.7a13.29,13.29,0,0,0-1.23-4.4s-3.92-4.46-5.24-5.17-2.93-3.76-2.93-3.76a13.75,13.75,0,0,1,2.81-5c2.07-2.3,1.34,0,2.33.73s6.94,4.53,8.58,5.92,2.3,1.74,2.93,3.43-.06,2.35-.14,5.7,1.58,3.73,1.58,3.73l3.46,3.75c.45.1.64.7.64.7s6.6-2.08,8.4-4.38,1.42.07,1.42.07l.37-1.77a19.07,19.07,0,0,0,3.58-4c.95-1.75,1.36,1.27,5.08.26s4.5.23,4.5.23a26.07,26.07,0,0,0-.62-4.5c-.47-1.79-5.81-2.13-6.92-2.78s-4.15-1.41-6.08-2.4-9.9-5-9.9-5l-3.2-3.77-.13-3.3.39-2.08s1.29-2.92,1.92-4.39a3.42,3.42,0,0,1,2.64-1.67l5.67-.63s8.73,4.26,8.92.47.84-1.76.84-1.76a37.52,37.52,0,0,0,3.57-3.61c1.6-1.93,2-1.71,2-1.71l1.22-1.73a50.93,50.93,0,0,0,2.14-5.1,17.82,17.82,0,0,0-.61-2.83s-1.83-1.29-2.73-1.94a11.79,11.79,0,0,1-2.13-2.7l.62-1a13.55,13.55,0,0,1,2.34-1.49c1.16-.53,4.38-5,4.38-5l-.51-1a33,33,0,0,1-4.84-1c-.91-.44-.44-2.42-.44-2.42l.8-1c.81-1,2.69-1.06,5-2.14s8.13-.58,8.13-.58l4.66-3s1.57-1.33,4.32-3.38a27.07,27.07,0,0,1,4.27-2.59,2.25,2.25,0,0,0,.85-1.95c0-.6-.7-1-.7-1s-3.65-2.18-6.79.26-11.61-1.19-11.61-1.19,9.33-5.92,10.16-7.48,2-1.5,3.15-2.64,2.39-2.68,7.58-8.41,0,0,4.27-2.59,3.86-1.8,3.86-1.8,3.48-1.82,4.64-2.56,2.34-1.49,4.78-5-2.69-6.53-2.69-6.53l-8.86,4-6.2,3.68c-6.21,3.68-8.92,5.14-15.9,9.2s-4.05-1.81-4-3a27.62,27.62,0,0,1,1.37-4.74l2.43-3.48s4.72-4.16,6.28-4.87,1.61-2.32,3.2-3.84,1.22-2,5.2-6.14,1.9-.3,3.41-.22,3.47-1.84,3.47-1.84l1.87-7.09a12.73,12.73,0,0,0,.29-5.59c-.64-2.43-2.64-.12-4.73-3.43s-11,9-17.37,15.91-16.08,12.78-22.91,21.24-5.75,9.3-9.51,16.7-3,7-13.21,22.94-3.52,2.61-8.66,7.55-4.38,4.58-8.83,10.75-5.64,7.31-8.39,9.56-13.65,9.32-13.65,9.32a33.59,33.59,0,0,1-3.68,5.8c-2.42,3.08-3.92,3-5.86,4.1s-3.46,1.43-11.07,3-11.91,4.58-14.93,4.83-8.42,2.78-9.89,1.9-7.16.44-11.63-.59-5.64-.29-5.64-.29a22.45,22.45,0,0,1-5.8-4.29c-3.6-3.38-.49-5.21-.49-5.21a48.79,48.79,0,0,1-7.89-.42c-2.61-.53-1.28-4.46-1.28-4.46l1.22-1.53c1.2-1.55,0,0,1.54-.73s12.67-5,14.67-7.25,11.75-1.8,13.64-1.69,3.85-1.82,3.85-1.82l2.78-2.66,1.54-.72c1.54-.72,5.08-3.74,6.62-4.46a9.06,9.06,0,0,0,3.12-2.24c1.19-1.15,5-1.35,7.29-2.43s1.5.08,3,.15,2-1.5,3.13-2.24,1.69-3.52,2.5-4.68,1.78-5.51,5.64-7.3l1.18-.55h0a.06.06,0,0,1,.05,0l.17-.08.18-.08.1,0h0s0,0,.05,0c1.34-.66,1.43-1.06,2.9-1.75s5.14-4.94,5.14-4.94l.21-4-4.3-4.23a57.89,57.89,0,0,1-1.16-6.86c-.24-2.8,1.49.1,1.49.1s7.39-4.43,8.55-5.18.87-2.35.94-3.55a5,5,0,0,1,.47-2l.12-2.39s1-4.34,2.16-5.49a3.34,3.34,0,0,1,2.31-1.07s3.78-.22,5.68-.52,3.46-1.43,5-1.75.14-2.78-4.68-4.24a101.46,101.46,0,0,1-11.43-4.58l-1.88-.09-2.38-5.32,1.95-1.09s12.95-2.94,14.44-2.88,10.7-3,10.7-3,4.32-3.38,6.29-5.29,4.8-5.34,7.11-6.43,3.48-1.82,5.4-2.53,7-4,8.86-3.94,7.68-2.82,10-3.9.56-3.57.33-6.38-2.49-2.92-8.94-2c0,0-16,4.37-19.86,5.79s-1.58,1.51-4.29,3-3.72-1-3.72-1l1.27-2.74,4.33-3.78c4.34-3.78,4.38-4.58,4.87-6.95s-.27-2-.2-3.21-.59-3.64-.5-5.23,4-5,4-5,3.63-4.62,8.82-10.35,2.49-4.66,5.26-7.33,0,0,.85-2,5.8-10.51,7.51-14.41-3.14-5-3.14-5a56,56,0,0,0-4.85,6.55c-2.45,3.88-15.06,16.43-15.06,16.43l-12.53,15.36-5.5,4.53-9.1,8.73a17.58,17.58,0,0,1-5.83,3.7,46.64,46.64,0,0,0-7.2.84c-2.66.66-6.42.47-15.46,8s-6.73,6.46-6.73,6.46-6.79,7.65-9.22,11.13a17.56,17.56,0,0,1-6.67,5.26,68.72,68.72,0,0,0-10,4.69c-4.27,2.58-3.88,2.19-9.28,4.72a10.64,10.64,0,0,0-2.91,2c-1.78,3.16-3.38,6.27-4.89,8.49a13.36,13.36,0,0,1-3.58,3.54c-.21.2-.43.4-.64.58-2.37,1.88-9.33,5.93-12.72,5.76s-.3-1.62.14-2.8a6.63,6.63,0,0,1,.71-1.16,18.82,18.82,0,0,0,1.57-2.6c.37-1.33,1.39-1.64,2.11-3.64s0,0,.05-2-5.22-5.84-5.22-5.84-.92-3.71-.54-5,5.4-1.55,5.4-1.55a6.1,6.1,0,0,1,1.74-2.3c1-.65,1.07-2.32,1.09-3.33a2.31,2.31,0,0,1,1.05-1.65l5.07-1.55.06-2.35a33.36,33.36,0,0,1-.24-3.7,1.79,1.79,0,0,1,1.38-1.64l1.7-.63,5.32,1.82s3.7-.58,4.72-.89,1.42-3,1.42-3a17.79,17.79,0,0,1-2.27-3.42,8.45,8.45,0,0,0-1.61-2.39,21.25,21.25,0,0,1-1.91-4.07,3.66,3.66,0,0,1,.74-2.67l1.33.37a12.53,12.53,0,0,1,4,2.45,7.62,7.62,0,0,0,3,1.42c1,.36,6.53,7.21,8.5,8.6s3.4-1.59,3.4-1.59a10.92,10.92,0,0,1,2.38-1.28,21.17,21.17,0,0,0,3.41-1.93l-1-2-2.27-3.08-3.35-.08-3.7.24-3.64-2.1s-1.25-3.39-.9-4.39,1.09-3,1.09-3a6.31,6.31,0,0,0,2.72-1.61c.7-1,2.69-.27,2.69-.27l3.69.43a35.35,35.35,0,0,1,4,2.45c1.32,1,0,0,2.15,7.77s2.68.07,3.69.1a6.17,6.17,0,0,0,3.06-1.27c1-.65,2.06-2,3.08-2.61s.74-2.66.74-2.66l-1-1.37-3.68-.43-1.64-1.71-1.61-2.4-1.66-1.05-3-1.75-3.62-3.11a10.75,10.75,0,0,1-1.94-2.73c-.31-1,0-1.68,4.48-4.59s6.34,1.51,7,2.53-.06,2.35.24,3.7,2.94,3.42,5.24,5.16,5,1.47,7,1.52l1.05,0c2.36-1.8,4.09-5.32,3.26-6.63s-.82-3.15-1.24-4.06a4.35,4.35,0,0,0-3.08-2.09c-1.12,0-1.8.62-3.13-.3s-2.2-1.18-2.85-2.09a25.2,25.2,0,0,0-2.16-3,13.28,13.28,0,0,0-3.52-2.33c-.67-.24-1.33-.7-2.22-.95s-3.37.59-4.23-1-2.17-2.29-1-3.16,2.18,2.07,7.77,2.21,13.17,1,13.17,1a19.55,19.55,0,0,1,3.17-1.49c.9-.2,1.58-.63,2.25-.39a7,7,0,0,1,1.75,1.38l.4,2,1.08,1.81s2.44.52,3.11.76a12.48,12.48,0,0,1,1.76.94s1.54,1.15,1.52,1.82a8.77,8.77,0,0,0,.62,2.26c.21.67,1.53,1.38.4,1.79S4360,485,4360,485l.37,2.69,1.09,1.37.43.14c3.19-1.69,5.72-3,5.72-3s3.88-2.38,4.34-3.95-.19-3.61-.4-6.82-2.17-1.71-2.17-1.71-2.29.69-2.57-1.33a91.07,91.07,0,0,1,.13-10c.08-1.6,2-3.1,2-3.1l2-2.7a32.56,32.56,0,0,0,4.77-4.94c1.62-2.33,1.27-2.74,3.58-3.82s12-7,13.19-7.73l4.67-3c2.34-1.47,8-16,7.28-17.21s-6-.31-6-.31l-5.43,3.32a13,13,0,0,1-4.36,4.17c-2.71,1.47-8.41,7.58-8.41,7.58s-10.57,3.06-18.33,7.46-2.49,4.68-4.93,8.15-2.06,3.5-4.06,5.8-2.06,3.48-14.36,8.45-2.92-1.73-5.41-4.66-7.76-2.8-9.62-3.29a2,2,0,0,1-1.38-2.47l1.73-4.3a19.35,19.35,0,0,0,4.33-3.79c2.39-2.68,0,0,2-3.1s0,0,.89-2.74,1.58-1.52,9.07-7.95c3.2-2.74,4.09-3.48,4.19-3.58-.1.05-1.07.79-.24-.21,1.61-1.92-.25-2.42-.25-2.42l-2.63-.13-3.79.62-3.43.62-4.94.94s-2,3.1-10,10.7-3.62,4.61-8,8.39-3.93,3.4-6.25,4.48a29.77,29.77,0,0,0-5,2.55c-2.33,1.47-5.49,4.5-7,5.23a12.24,12.24,0,0,0-2,1.1s-13,5.74-14.22,6.89-4.94.94-7.18.82-2.69,1.07-4.6,1.37-4.78,5.35-9.49,9.12-9.4-.47-9.4-.47l1.32-3.54a45,45,0,0,1,2.53-5.47c1.25-2.33.94-3.56.94-3.56l4.42-5.77c4.44-5.77,10-3.48,11.11-3.43s19.91-6.6,19.91-6.6,1.77-5.5.84-9.14,0,0-3-.56-9.4-.08-14.27-.71-5.24-.68-7-2.37-8.79-4.88-8.79-4.88l.93-3.51a6.85,6.85,0,0,1,4.26-2.18,27.93,27.93,0,0,1,3.39-.23s7.78,10,10.25,5.71a6.7,6.7,0,0,1,1.42-1.6c-.66-.29-1.3-.59-1.91-.91-8.83-4.7-1.3-1.83-2.57-4.54s.05-2.24.1-4,0-1.79,1-3.11,3.13.08,4.48.12.93-1.77,1-3.11a2.65,2.65,0,0,0-.4-1.8,37.1,37.1,0,0,1-4.36-4.58,8.71,8.71,0,0,1-1.66-5,9.27,9.27,0,0,1,4.12-3.92c3.17-1.71,3.16-1.26,3.16-1.26s4.53-2.13,6.77-2.07,4.41,2.35,6.6,4.19,0,0,1.27,3.17,1.58,8.09,9.15,9.63,6.27-.29,8.54-1.58.51-2.22.54-3.56-1.29-2.27-3-5.45,0,0-.41-1.35-.83-2.71-.83-2.71l-1.28-2.26.18-7.16,1.34,0c1.34,0,2.2,1.4,3.52,2.33s3.13.08,6.26.16a31.12,31.12,0,0,0,7.18-.72,3.05,3.05,0,0,0,1.41-.64c.82-1.34,1.51-2.39,1.51-2.39l-1-3.18-.86-1.81-.79-4.05,1.84-1.74,3.61-1.25.05-2.24-.81-3.15-12-3-2.55-5.43,4.48.11,11.18.28c3.13.08,4.93-.32,7.61-.25s2.23.5,3.56,1c1,.38,2.65.22,5.63.2.06-.27.11-.45.11-.45l7.15-7.24s-2,.61-9.18,2.22-8.05-.21-10.28-.71-6.25-.61-8.92-1.12-4.84-3.26-4.84-3.26.52-2.67,1.88-3.53,3.13.08,10.73.27l7.61.2a30,30,0,0,0,6.27-.29c4-.35,6.31-2.08,8.1-2,1.22,0,5.33-.49,8.69-.8,1.05-.67,1.67-.51,5.88-.94,5.3-.53,1.29-3.13,1.8-5.91s.15-2.79.15-2.79l.48-2,8.05-10.39s.6-4.36.68-6-1.86-.5-1.86-.5L4375,320s-10,11.1-11.93,12.19-2.7,1.47-2.7,1.47-1.57,1.12-15,5.64-6.22-3.51-6.1-5.9.15-2.79,1.31-3.54a18.38,18.38,0,0,0,2.77-2.66c1.19-1.14,7.95-8.39,8.77-9.55s2.37-2.29,3.18-3.43,4.16-7.44,5-10.81c2.11-2.57,4.26-4.89,5.21-5.41,1.28-.37,2.59-.16,5.76-1.37,4.62-1.77,3.13-2.25,4.3-3s10.44-5.47,12.39-14.17c1.86-8.33-3.08-11.5-3.51-11.76-1.74,2.82-2.59,7.15-4.53,11.45-2.24,5-9,9.4-13.16,11.84l-.38-2.79.73-2.21a13.74,13.74,0,0,1,2.08-2.86c.68-.43.94-1.77,3.3-6.4s.09-3.8.09-3.8-1.65,3.31-2.58,4.85-3,3.51-3.7,4.83-3.46,3.94-5.5,7.91-.15,3.13-.14,5.46a32.83,32.83,0,0,0-1.63,3,12.28,12.28,0,0,1-1.9,1.05c-1.81.88.16,2.44-1.56,4.85a39.4,39.4,0,0,1-3.22,3.44c-1.45,1.45-1-1.27-1-1.27l-.16-2.47s.54-3.57.57-4.68a14.91,14.91,0,0,1,.31-3.35,16,16,0,0,1,1.5-3.32c.54-.66-.26-1.79,0-3.58s0-1.56-1.28-2.49a30.65,30.65,0,0,0-1.43,3.77c-.26,1.11-1.18,2.2-1.66,3.53a31.93,31.93,0,0,1-1.45,4.22c-.7,1.32.84,2-.08,3.13s-.07,2.9-.11,4.47-3,8.46-3,8.46c-.57.41-1.08.76-1.5,1-3.42,2.26-7.54,6.18-10.28,8.46s-6.13,3.54-8.51,4.82a46.15,46.15,0,0,1-9.15,3.46c-3.38.92-17,12.42-17,12.42-2.45,2.52-4.07,4.15-6.12,6.4-2.79,3.05-4.27,2.58-7.65,2.42s-8.56-2-10-3.31.49-2.37-2.18-9.31,1.17-7.94,1.62-9.51,1.88.08,1.88.08,11.87-3.78,13.8-4.89c.6-.34.83-.46.9-.49s-.43.34.25.15c1.15-.34,4-4.6,4.81-5.76s1.54-.72,5.24-6.93-.53-4.42-.53-4.42a9.94,9.94,0,0,0-3.12,2.23c-.82,1.17-10.47,5.88-19.67,9s-4.28-4.22-4.28-4.22l4.73-4.56s7-3.64,10-3.89,5.44-3.33,7-4.84,4.31-3.38,5.12-4.55,2.32-1.08,4.33-3.77,3.62-4.62,4.85-6.56,1.61-1.91,4.69-3.35,0,0,2-3.1a75.34,75.34,0,0,1,6-8.09c4-5,3.1-9,3.93-10.6s6.76-14.45,5.32-15.73.17-3.19.17-3.19-5.57-1.48-7.48-1.18-1.51-.07-3.78.21-6,14.9-6,14.9a3.42,3.42,0,0,1-.19,3.59c-1.22,1.93-4.39,5-5.59,6.51s-6.42,7.67-11.1,11-2.69,1.07-4.07,1-6.48-.74-7.63-.4a16.14,16.14,0,0,1-3.79.22l-13.21,8.13-10.38-2.93.47-2c.48-2,1.22-1.95,2.36-1.89s5.06-3.34,6.27-4.88a1.29,1.29,0,0,1,2.25.11s4.72-4.15,6.3-5.67a13.31,13.31,0,0,1,4.68-3,14.31,14.31,0,0,0,3.1-1.84l1.59-1.52c1.58-1.53.7-6.77-1.91-6.9s-9.84,1.1-9.84,1.1a29.14,29.14,0,0,1-10.9-.55,17.52,17.52,0,0,1-8.47-6l2.53-3.07s5.76-2.11,18.75-5.85,5.35-1.73,5.5-4.53a12,12,0,0,0-.52-4.5s-9.27-2.78-17.62-1.6-6.38-.33-6.38-.33L4248,232l2.12-4.69,3.16-3s6.66-4.87,7.82-5.61,4.13.21,4.13.21,15-5.64,15.82-7.59,1.2-1.54,3.2-3.84,0,0,1.22-1.8,4.29-2.72,8.2-5.72,2-1.9,3.19-3.43.08-1.6.24-4.8c0,0-5.17-1.85-6.32-1.52s-6.15,2.49-6.15,2.49a49.79,49.79,0,0,1-11.57,5.41c-7.28,2.43-9.6,3.51-9.6,3.51s-9-1.26-12.37-1,0,0-4.95,1.35,0,0-2.69,1.07-3-.16-3-.16-1.79-1.69-2.86-2.93-.65-2-.65-2l3.43-8.23s4.71-3.75,5.73-5.31,1.91-4.29,1.61-5.86-1.05-5.3-1.05-5.3,2.92-1.85,4.85-3,4.4-5,5.67-7.72a18.53,18.53,0,0,0,1.43-5.92l-4,4.19c-4,4.2-3.62,4.62-6,6.11s-3.14,2.64-6.22,4.07-2,1.51-5.82,3.31-4,3.8-6.19,3.29A4.48,4.48,0,0,1,4228,176c.05-1.93.09-3.85.14-5.76l0,0,1.66-3.11s11.56-12.61,13.91-14.31,8.08-3.77,10.79-5.23,2-2.3,3.17-3,2.83-3.86,5.27-7.33,2.4-2.67,3.56-3.42,1.58-1.52,2.8-3.17,2.69-1,3.87-2.08.95-4,1.41-5.54,1.28-3.13,1.35-4.33.89-2.74,1.35-4.33,1.68-3.52,1.75-4.71-3.66-2.18-3.66-2.18a26.42,26.42,0,0,0-5.06,3.34c-2.76,2.26,0,0-3.2,3.44s0,0-3.28,5.43-9.67,5.11-14.29,7.27c-3.36,1.57-10,9.87-15.38,16.36l-1.87,2.25c.09-.65.31-1.68.7-3.23,2.22-8.73,1.17-14.75.57-22.36s-1.48-5-1.62-11.23,2.14-9.73,2.36-18.31a130,130,0,0,0-1.41-19.21l-.15-11.57c.11-3.82.23-7.09.35-9,.5-8.08,2.65-57.46-1.14-49.77h0c-3.79,7.69-4.18,11.58-4.23,13.67s-.26,10.18-.26,10.18-2.74,13.71-2.78,15.21a109.05,109.05,0,0,0,1.2,11.42c.53,3-.13,5.39-.17,6.89s-1.93,17-1.93,17l-.09,3.59s-1.54,13.74-.5,19.76-.53,10.37-.85,12.36a8.63,8.63,0,0,1-2.36,3.93s-3.29,3.92-6.78-.17a111,111,0,0,1-10.42-14.64A31.45,31.45,0,0,1,4198,84a35.18,35.18,0,0,0-2.5-11.65c-1.12-3.22-1.88-4.85-2.25-6s-1.57-.83-1.65,2.35-1.43,9.15-.27,10.78,1.15,1.64,1.05,5.62l-.15,6c-.06,2.4-.06,2.4.64,6s1.75,10,3.3,11.68,1.91,3.64,3.08,4.87a13.8,13.8,0,0,1,1.93,2.62s2.22,7.07,5.74,10,5.49,3.74,5.46,4.93l0,1.2a8.87,8.87,0,0,1-2.1,5.94s-4.5,2.68-7.63-.19-2.29-4.05-4.69-4.11-2.83,1.52-6.34-1.77-5.89-4.14-7.85-5.78-4.28-4.11-4.28-4.11l-2.34-2.46s-2.61-7.65-2-.44-2.89,8.31-.38,9.57,6,4.95,6,4.95-2.17,6.33-3.38,7.11-5.17-.94-1.67,3.15a21.58,21.58,0,0,0,6.21,5.33c-.4-.3-4.75-3.53,1.64.06,6.69,3.76,7.1,3.77,8.27,5s1.87,4.45,1.87,4.45l2.35,2.05,9.54,1.84s2.46-2.74,2.39.06-2.23,6.73-6.38,6.62-10.61,1.74-15.35-.38a60.05,60.05,0,0,1-11.4-6.67c-2.76-2.08-7.15-1.78-4.82.68s5.45,5.5,6.22,6.64a40.12,40.12,0,0,0,3.51,3.58c1.17,1.23,6.7,3.77,7.46,5s2.74,2.46,4.34,2.1,10,.34,10,.34,2,.92,3.2.08a.37.37,0,0,1,.3-.08c1.84,0,8.39,5.86,9.51,7l.12.12,1,1.1.95,1-.29,5.88-2.93,4.27-9.1-3.43s-7.12-3-8.71-3-8.35-1.81-11.14-2.27a19.69,19.69,0,0,1-7.51-3c-2.75-1.67-2.85,2.33-1.3,4a15.5,15.5,0,0,0,5.49,4.13c2.76,1.27,12.29,3.9,15.5,3.19s4.82-1.07,8.33,2.2a51.87,51.87,0,0,0,8.23,6.62,7.44,7.44,0,0,1,2.36,3l-.22,4.44c-1.56,2.46-3.45,11-3.83,12.08s1.11,3.24-3.3,3.92a144.33,144.33,0,0,1-16,1.59l-8-.2s-2.53,5.53-5.59-.14S4168.2,221,4166.26,219s-5.82-6.53-5.91-2.94-1.76,5.95-.18,7.19,1.55,1.63,3.52,2.87,2.37.86,3.55,1.71c.64.44.36.16.27.07.08,0,.3.24.91.74,1.95,1.66-.87,2.78-3.28,3.12s-5.56-1.34-7.53-2.19-5-2.45-5.13-2.52a52.8,52.8,0,0,0-3.08-4.47c-3.48-4.88-3.9-4.5-6.2-8.15s-1.1-3.63-3.83-6.09-4.73-2.92-6.28-4.56-2,.55-2.05,2.16-.66,2.37-.08,3.18,2.54,2.27,3.31,3.08,2,1.05,2.95,1.68a18.3,18.3,0,0,1,3.87,3.89c.61,1,5.73,11.73,5.73,11.73s0,.6,1.94,2.05,2.57,1.45,3.35,2.28a6.71,6.71,0,0,0,2.16,1.34s1.56,1.35.95,1.74a24.52,24.52,0,0,1-5.44,1.65,13,13,0,0,1-5.38-.13,31.23,31.23,0,0,1-7.92-2.81l-2-1.24-1.75-2-2.67.72s-.52,2-.08,2.81.23,1.54,1,2.48-.8-.08.77,1,.38.83,4.33,2.51,16.46,4.61,16.46,4.61-1.17-1.43,2.6.07,5.54,2.15,5.54,2.15,3.2,3.67,4,7.28-1.83,1.16.46,5.71c2,3.9,1.83,3.35,1.75,3.11l2.85,4.49,2,2.75,3.59.1s1.37,2.72,2.89,3.07.91.91,3.56,2.48,5.07,1,5.64,2.25-1.92,4.73-1.92,4.73,3.85,1.9-2.1-.05-7.12-2.87-8.3-3.5-2.09-.06-3.26-1.28-5-5.22-4.78-.73l.19,4.5s6.13,6.45,7.89,7.7,13.36,4.83,13.36,4.83l3.54,2.48,5,4.33s-3.41,4.1-8.18,3.08l-4.76-1-2.39-.35s-1.51.21-.93,1.29,2.94,2.05,3.82,3a1.91,1.91,0,0,1,.22.25c.15.14.35.36.65.67,2.05,2.15-.93,1.18,2.05,2.15a11.54,11.54,0,0,0,6,.15s.93-1,.89.42,1.42,2.94-1.3,4.07-.33,1.19-2.72,1.13l-2.4-.06s-.9,0-.64,1.48.87,1.52,1.73,2.74-3.28-.39.87,1.22,6.29.16,6.29.16l1.48.7,1.75,1.78-4.82,1.37,0,6.18a37.83,37.83,0,0,1-10.72-2.39c-4.43-1.9-6.2-2.39-9.29-4.26s-1.08-5.95-1.3-10.66-.71-11.43-2-12.46-2,.62-3-.08-1.67,0-1.71,1.3a21.71,21.71,0,0,0-.12,4.7c.27,2.68,1.9,4.74,1.87,5.75s.34.12.6,2.75a31.35,31.35,0,0,1,.21,5l0,1.34a6.42,6.42,0,0,1-6.34-1.51c-3.29-2.76-4.28-3.34-6.25-5.13s-3-1.14-2.91-4.16,2.11-4-1.85-6.42-4.95-3.48-6.9-5.88-.95-2.37-3.57-4.79-3.93-3.79-5.58-4.84-1.35.3-4.31-2.12-3.25-4.44-5.92-4.85a18.24,18.24,0,0,0-4.7-.12s-2.34-.06,0,2,2.65,1.74,5.29,3.49a32.15,32.15,0,0,1,4.93,3.81c2,1.73,3.27,3.44,5.92,4.85s4.33,1.45,6.28,3.85,2.24,4.38,3.2,6.1l1,1.72s1.94,3.07-3.06,1.94S4139,311,4136,311l-6-.15c-1,0,.38-1.67-1,0s-1.39,2,.93,3.05,2,1.39,4.66,1.46l5.37.13c2.35.06,4.7-.22,5.7.15s7.62,3.88,8.61,4.58,1,0,2.64,1.74,7.61,4.22,9.27,4.93.69-1,1.66.72,1.94,3.06-1.77,3.64-1.08,1.54-7.77,1.26-7.64-2.09-10-.25-2.38,1.17-4.42,2.12l-2,1a5.84,5.84,0,0,0,5.3,2.81c1.34,0-1.37.64,3.68.1s7.36.48,7.36.48-1.28-1.67,2.08-1.92,2.33.39,5-.21,3.69.09,5.76-1.87,1.43-3.65,2.06-2,2.29,2.41-.45,4.69-2.09,2.63-3.79,3.93-.63-1.69-1.71,1.3a33.28,33.28,0,0,0-1.48,5.33s3.72-1.25,5.1-2.89-1.7,1,1.39-1.65,1,.37,3.08-2.6.71-1.33,2.09-3-1-1.36,1.39-1.64,3-.59,6,1.16l3,1.75a30,30,0,0,0,3.64,2.11c1,.36,4.48.17,5.07.67,1.73,1.53,2.17,1.22,2.12,3.25-.06,2.39,1.13,2.72-.1,4.19s-2.78,2.92-2.78,2.92-.33,1.49-1.54,1.76-8.51,4.88-8.51,4.88a10.54,10.54,0,0,0-1.23,1.47c-.38.53-.07-.32,0-.45,0,.1-.21.45-.59,1.33a31,31,0,0,1-4.36,6.48l-1.49,0s-3.46,3.81-1.95,4.73a51.61,51.61,0,0,0,5.36,2.54l.56,1.51s0,.9-1.83,1.45-2.79,1.13-4.25,1.1l-5.07-.13c-1.19,0-5.65-1.64-8.94-2s-6-1.05-7.16-1.08-1.53,1.46-8.62-2.61-10.94-6-14.8-7.26S4119.5,362,4118.38,359s-3.49-4-4.95-5.82-4.07-4.89-4.07-4.89-2.83-6.37-3.19-4-.75,5.67-.19,7.48-6.55-1.65-7.08-4.37-1.08-4.81-2.18-8.74-.18-16.78-2.4-11.45-3.18,7.11-2.37,10.72a30.31,30.31,0,0,1,1,7.52c0,1.8.25,2.11-.09,3.9a18.12,18.12,0,0,1-1.66,4.15,2,2,0,0,1-2.34-.06l-1.17-.93-2.37-1.26,0,1.5a2.82,2.82,0,0,0,0,1.8c.27,1.21,1.17.93,2.64,1.86s1.78.65,3.27,1.29a36.07,36.07,0,0,1,3.55,1.88s1.18.63.56,1.52,1.21-.57-.63.87a41.84,41.84,0,0,1-6.07,3.45,5.59,5.59,0,0,0,3.55,1.58l4.19.11c1.5,0,.33-.89,5.7-.45s6.59.46,8.67.81a10.32,10.32,0,0,1,3.87,1.3c1.18.64,2.66,1.56,2.66,1.56l-2.74,1.74-7.49-.19c-2.4-.06-8.38-.51-9.29-.23l-.9.27s-3.35,2-1.26,2.36a104.09,104.09,0,0,0,11,1.48c3,.08,2,2.75,5.05,1.63a12.52,12.52,0,0,1,5.73-1.06l6.28.16c.9,0,3.3-.21,3.3-.21s1.81-.26,1.78.64,1.12,3.33-.08,3.3l-3-.08s.32-.59-1.79,0l-2.11.54s-9,2.47-10,3l-.92.58s-1.24,1.77.24,2.4,2.43-1.13,3.59.09-4.85,2.58,1.17,1.23,3.92-1.1,6-1.35a34.82,34.82,0,0,1,4.19-.19l3.9.1s6.89-2.22,6.95-3.72.4-2.69,2.2-2.64,4.44,2.21,5,3.43,1.43,2.72,1.43,2.72-14.68,11.32-15.84,9.79-3.59,0-3.59,0l-1.35,6.14s0,1.48,2.35,1.54l6.59.17,2.66.07-.16,6.29-2.36-.06-.67,2.68c1.76,1.54,3,1.87,4.46,1.61a36.31,36.31,0,0,0,4.53-1.39l1.51-.56s1.8,0,1.74,2.24-1.94,5.55-1.94,5.55c-1.56,2.65,2.49,8.15,2.46,9.54s4,.51,7.62-1.2,7.71-5,8.67-3.37,1.53,2.62,1.51,3.63-.43,1.38-.68,3.17a16.19,16.19,0,0,1-.25,1.79c-.23,1.19,1.4,8.24,5.18,8.33s4.18.71,6.59.17a45.89,45.89,0,0,1,6.81-.63s1.17,1,3.39-.12,7.85-2,7.85-2a38.09,38.09,0,0,1,2.71,3.53c.18.52.34,2.13.53,2.74s.37,1.21-.85,2.17-2.86,2.33-2.86,2.33-3.24,1.72-3.88,3.1-1.44,1.77-1.66,2.55a13.56,13.56,0,0,1-1.46,2.56,9.17,9.17,0,0,0,4.21,7.51c4.32,2.69,5.52,2.53,6.48,4.36a9.06,9.06,0,0,1,1.07,4.81l-.64,1.79s-.79-.43-.23,1.19-.07,2.79.49,4.2-.48,3.38-.91,4.18a30,30,0,0,1-3.68,3.5,6.27,6.27,0,0,0-1.65,1.95c-.42,1,.14,2.6-.68,3.39s-4.23,1.28-4.23,1.28.7-3.77.92-4.77a21.79,21.79,0,0,0,.27-3l-.56-1.61a21.54,21.54,0,0,0-3.35-1.29c-.6,0-3.44,1.72-3.89,3.3s-.39,0-.43,1.59-.66,2.18-.68,3,.14,2.59-.46,2.58l-2-.05a4.6,4.6,0,0,0-.44,1.79l0,1s-.84,1.18-1.44,1.35-9.56-1-10.58-.27-4.4-.06-4.4-.06-1.42.86-2.4.27-2.37-.83-2.3-3.62a27.16,27.16,0,0,1,.73-5.37s-.19-.22.43-1.19,1.67,5,2.12-4.55.53-13.17.53-13.17l-1.74-2.24s-.18-1-1.43,1.16-1.11,4-1.91,4.55l-.82.58a3.65,3.65,0,0,1-3.12-2.67c-.54-2.41-2.86-5.28-4-7.1s-7.27-4.78-7.27-4.78a17.62,17.62,0,0,1-1.09-4.43c0-1.38-1.34-4-.88-5.81s-1.46-4.22-1.46-4.22a18.7,18.7,0,0,1-4.22,1.09c-1.21,0-3.39-.29-3.39-.29l-4.18-8.9a9.57,9.57,0,0,1-1.88-4c-.74-2.82-1.05-6-1.85-6.24s-2.81.73-2.81.73,1.78.65-2.22.74-3.41.33-6.59-.17a18.13,18.13,0,0,1-5.94-2.14s-2.13-2.45-3.89-4.1,2.12,3.26-6.45-5.35-24.74-17.2-27.92-17.88-6.88-4.17-6.86-4.77-1-1.62-2.31-3.46-2.71-3.45-2.71-3.45-.55-2-1.36-1.44-.41.19-.07,2.79-.09,3.59.87,4.62,1.73,2.64,2.32,3.25.75,2,2.9,3.67,4.92,2.93,5.89,4,5.47,5.13,5.47,5.13l2.7,3.67s-9.83,2-12,1.08a27.8,27.8,0,0,0-4.75-1.71,24.13,24.13,0,0,0-3-.28s-1.42,1.16.93,3,3.71,2.89,4.31,2.91,3.38,1.08,4.57,1.32,11.94,1.69,12.12,2.29a19.77,19.77,0,0,0,1.34,2.44l-7.7,4.4s-.42.59.57,1.21,2.36,1.66,3,1.67.85-2,2,.05,2.64-1.52,1.15,2a8.42,8.42,0,0,0-.16,6.39s2.76,1.66,4.15,1.7a13.52,13.52,0,0,1,3.57.89l.9,4.42s-1.24,1.56-2.24,1.54-1.41.56-2.81.52l-5.6-.14c-1.19,0,.64-1.57-1.19,0a8.22,8.22,0,0,0-2.26,2.54s.36,1.22,3,1.47,1.18.63,5.37.94,6.58.56,7.77.59l4.19.11c1.8,0,3.6.09,4,.7s1.9,3.84-.73,5.19-5.86,2.84-6.66,2.82l-.79,0s-5.28,2.87-2.71,4.13a15.51,15.51,0,0,0,8.36,1.2,29.65,29.65,0,0,1,4.2-.29c2.4-.14,4-.1,4.78.52s2.95,1.87,2.95,1.87-15.52,5.81-17.35,7-3.06,2.62-6.12,4.93-5.8,4.36-7.05,6.42a87.07,87.07,0,0,1-6.18,7.48l-.08,3.15s6.3-.44,7.86-2.8,7.61-4.91,7.61-4.91,1.56,9.34.05,9.9a12.87,12.87,0,0,0-3.35,2.31l-.94,1.48-.37,3s.81,3.32,2,4.55-.36,2.39,3.54,2.18,5.42-1.06,5.42-1.06l2.4.06,1.09,3.58c0-.22,0-1,1.51.09,1.76,1.24,6.26,1.35,8.34,1.7a10.74,10.74,0,0,1,3.86,1.6l3.6.09c1.79,0,.32-.89,4.27-3.18l6.39-3.74s3.57.69,3.55,1.59a8.89,8.89,0,0,0,.54,2.41s1.13,2.72.22,3.3l-.92.57a37.11,37.11,0,0,0-2.77,2.93c-.93,1.18-.38,3.29-.38,3.29s.85,1.81,1.74,2.13a7.5,7.5,0,0,0,2.7.07l2.89,4,.27,1.5a5.68,5.68,0,0,1-1.56,2.35l-.92.58s-.67,3-1.87,3-2.73,1.43-2.73,1.43l-.95,2.08-1.9,3.84s1.2,0,.24,2.41-.1,4.19.79,4.22,8.12-1.3,8.12-1.3,2.51-4.13,1.17,1.53-2,8.33-.81,8.36-.05,1.81,5.09.13a38.61,38.61,0,0,0,7.87-3.39l9.92-1.26,3.29.39,4.35,5.7.56,1.32s-8.06,10.88-10.19,12.33-2.77,2.62-9.65,2.45l-10.78-.28c-1.51,0-4.48-.71-6.29-.15s-19.18.11-22.09-3.56-15.47-16-16-17.18-12.84-13.52-19.21-22.36-9.55-13.43-13.64-17.73-12.57-12.3-16.95-16.91-9.41-7.12-9.43-6.23,1.69,4.24,2,5.15,1.18.62,3.23,2.78,5.78,8.23,5.78,8.23l.25,1.81-4.51.78-2.11.54,1.08,4.83s.55,1.81,2.05,1.85l1.5,0,2,3.64s-1,3.57-.12,4.5c.54.56-.25.19-.33.19.08.06.38.25,1.21.72l2.66,1.57,2.66,1.26s-1.91,4.45-1.93,5.35-1.79-.34,0,.9,2.34,2.15,3.84,1.89a13.2,13.2,0,0,1,3.6.09s1.55-2.35,1.76,1.25-5,9.16-7.13,9.4a34.68,34.68,0,0,1-6.58-.46l-12.1-7.2s-10.72-2.67-18.2-2.86-10.81.93-11.14,1.82-2.43,1.73-.06,2.7a20.77,20.77,0,0,0,6.55,1.66c1.79,0,3.31-.52,3.28.69s-3,1.12.19,3.89,4.14,2.51,5.32,3.13a9.32,9.32,0,0,0,5,1.63c2.7.07,5.76-2.25,5.68.74s-1.9,3.85-2.23,5.34l-.34,1.49-7.89,4-1.85,2s-5.16,2.27.25,1.81,4.8-.18,7.52-1.31l.49-.2c-.1.09-.56.31-1,.56l3.27-1.49c10-4.54,16.63-5.87,13.85-2.65s-4.92,5-6.13,5.54-6.13,5.24-6.13,5.24,2.13,2.46,3.34,2.08,6,1.44,7.19.22,2.46-2.57,2.46-2.57a9.48,9.48,0,0,1,1.64-1.76c.61-.39,4.41-.48,4.41-.48l5.16.92,5.3,3.93,3.53,2.28,6.77,1.37.44,6.21,0,1.4s0,.6,0,1.39,1.34,2.24,1.34,2.24,3.58.69,4.74,2.32,1.33,2.22,1.32,2.82a12.44,12.44,0,0,1-.08,2.8c-.21,1,1.26,5.82,1.26,5.82a27.82,27.82,0,0,0,10.78.28c5.62-1.06,7.16,1.37,7.51,3s2.43-1.14.37,1.62l-2.07,2.74s-5.65,1.85-8.06,2.58a10,10,0,0,1-5.18-.13l-3.68,2.53-.8.56s3,3.72,4.51,3.31,1.8.12,4.34.15,3.44.43,4.19.1,9.43.38,9.43.38,1.22-.74.12,1.17-6.26,5.1-6.58,5.53l-.31.44s-.62,1,0,1.35,1.52-.57,2.7.07,2.7-.41,3.29.14,1.79.17,1.79.17a2.23,2.23,0,0,0,1.34.19c.6-.17,3.75-.21,4,.16a3,3,0,0,1,.85,2c0,1.06-.16-.15,0,1.06s.42.9,1.16,1.52,2.82.51,3.57,1,1.23-1.47,1.61,1.23-1.09,13.76-3.19,13.71-4.86,2.57-7.56,2.8-.21-3.6-3.89-.1a43,43,0,0,1-6.13,5.24l-.91.58s0,1.79,4.14,1.9,3.61-.21,7.19.18a28.44,28.44,0,0,0,5.69.15s1.31-4.2,2.39.19l1.09,4.4s6.5,3.75,7.7,3.78l4.78.12,3,.08,3.6.09s1.73,2.44.5,3.61-1.28,3.26-2.8,4.12-12.55,1.78-13.64,1.76l-1.09,0s-1.83,1.45-.65,2.08,7.45,1.68,11.64,2.09a24.56,24.56,0,0,0,5.69.14l2,2.45.53,3a4.52,4.52,0,0,0,2.39.06c1.8-.26.88.59,4.78.26s3.63-1.33,5.69.25,3.52,3.44,3.47,5.24-.81,8.37-1.71,8.34-1.81.55-3-.07-2.67-1-6.59.09-3.3,0-6.35,2.28-9,.07-11.08-.28-5.22-3.43-6.28-4.65a74.86,74.86,0,0,0-7.19-8c-5-4.92-7.66-5-12-10.49s-1.16-1.23-7.3-7.37-8.85-5.32-10.81-10.77-2.35-2.15-4.86-9.11,1-5.67-3.67-9.07-.55-2.12-9.42-6.54-13.87-8.74-16.79-11.81-8.5-7.4-10.86-8.37-7.94-6.19-2.72.84,3.49,4,5.21,7a20.83,20.83,0,0,0,5.53,6.74c2.05,1.55-.48-5.1,4.39,3.71s14.17,8.44,3.36,9.67-11.12,1.21-12.92,1.17.07-2.69-4.79-.12-5.5,4.36-4.61,4.68a15.94,15.94,0,0,1,2.36,1.25,14.27,14.27,0,0,0,5.35,1.94l3.59.09s.9-.28,3.26,1.28a35.49,35.49,0,0,1,5,3.43l2.64,2.16s8.3,3.8,8.87,5,1.06,5.42-.77,6.58-.58-.91-1.82,1.15-3.64,1.41-1.32,4.46,5.6,3.74,7.37,5,2.67.67,3.23,2.18,2.64,2.46-.11,4.49c-1.81,1.34-4.15,2.67-4.14,3.62-6-2-19.79-5.89-22.08-5.38-6.55-2-10.75-1.47-15.5-3.09s-5.61-3.44-9.21-3.23-8.39-.27-11.68-.34-8.42,1-6.93,1.67,2.65,1.83,6.22,2.84,4.46,1.32,7.15,1.39,1.09.07,6.84,2a26.41,26.41,0,0,0,6.1,1.29,6.4,6.4,0,0,1-2.3,2.61,11.78,11.78,0,0,0-2.89,3.91c6,1,8-1.39,8-1.39s.35,2.48-2.94,6.15-4.14,5.66-4.19,7.65-1.59-.44-.05,2,4.77.92,6.78.17,9.66-2.55,9.66-2.55,1.63-1.16,2.36,1.26.44-1.19.74,2.41a28,28,0,0,1-.16,6.38s-2,.35-.05,2,1.91,3.64,5.12,2.52,5.32-4.66,5.32-4.66,2.45-1.94,2.39.45,2.35,2-.12,4.77-3.58-.46-4.18,7.11a54,54,0,0,1-1.08,6.68c-1.08-2.48-2.18-4.45-3.35-5.19-3.94-2.49-15.53-2-23.33-9.37s-18.12-12.84-17.18-9.22,4.56,8.94,4.78,9.28c-.2-.08-2.58-1.12,1.55,2.06,4.32,3.31,6.73,3,6.68,5s2.43-1.53,0,2-5.39,7.45-7.82,8.58l-2.43,1.15s-1.29,3.95,4.74,2.51,13.26-3.26,13.26-3.26c2,0,8.35,1.41,3.81,7.68s-5,8.27-5,9.46a16.67,16.67,0,0,0,.7,3.62s1.55,2,2.74,2.46,2.69,4.07,2.65,5.66,8.93,10.22,8.93,10.22,1.22-.76,1.16,1.63.69,4-.15,5.58-.87,3.18-1.35,6.37.33,2.4-.54,5.17,2.95,10.06,2.95,10.06-4.41,4.49-1.19,7.57,3.53,2.79,6.55,1.67,10.26-2.74,11.74-2.4,6.24,2.25,6.24,2.25,4.43,2.52,4.4,4a11,11,0,0,1-.71,4.17,34.2,34.2,0,0,1-2.23,5.34c-.63.88-2.18,3.24-3.69,3.5s-2.37-1-4.19-.1-1.47-1.14-3,0-4.28,3.14-4.28,3.14-.82-3-.9,0a3.49,3.49,0,0,0,2.31,3.66s.23,2.71.2,3.9v.35l0,.85c-.06,2.39,3.49,4.28,6.18,4.35a21.72,21.72,0,0,0,7.22-1.31c.76-.29.68-.29.65-.29s.22-.08.87-.27a32.92,32.92,0,0,0,3.63-1.41s-.56-1.52,6.65-2.53,11.44-1.81,12.33-1.79a21,21,0,0,1,3.87,1.3s-10.41,8.73-11.32,9-7.6,4.61-7.63,5.5l0,.9a29.74,29.74,0,0,0-2.17,2.94c-.94,1.47-5-2.52-.94,1.47s8,3.5,8,3.5l2.1.08s1.84-1.72,2.4.06a15.67,15.67,0,0,1,.49,4.18l-1.24,1.47s8.43-1.39,12.18-7.68,11.74-6.5,11.68-4.11a15.57,15.57,0,0,1-2.59,7.54c-1.23,1.56-2.49,3.93-3.3,4.7s-.85,1.57-1.72,4.36-1.27,3.16-.91,4.76,2.29,4.06,2.25,5.65c0,1.06-2.88,4.46-2.94,4.65.13-.09.92-.93,2.9-3.05,6.57-7,7.08-11.4,7.08-11.4s3.29-3.92,4.5-3.89,5.59.14,5.54,2.14l-.24,9.58c-.1,3.59.57,5.1-1.83,7.09A19.35,19.35,0,0,0,4092,911s-3.25,2.73.31,4,8.71,3,8.71,3,3.62-1.11,1.1,4-4.23,5.88-7,7.42-8.05,3.78-8.05,3.78-.86,2.38-.49,3.59,0,1.59,5.85,5.33,5.44,6.55,4.24,6.51,0,1.2-6.79-.17-8.37-1-11.5-3.09,10.07-3.74-7.09-4.17-14.41,1.23-22.73-1.78-11.87-4.29-17.42-6-20.73-17.69-21.39-7.32c-.45,6.91,3,8.59,5.28,9.43a9.52,9.52,0,0,0-.14,2.53c.28.77,2.27,4.85,2.68,6.82a21.59,21.59,0,0,0,2.11,5.14,15.92,15.92,0,0,1,1.23,4.83,25,25,0,0,1-2.19,3.84c-.19.26,0-.39.05-.54a9.49,9.49,0,0,0-.37,1,22.69,22.69,0,0,0-.91,6.13,29.07,29.07,0,0,1,.23,3,15.31,15.31,0,0,1-.84,3.72s-.95,2.07-2.41.54-3.49-4-3.49-4-8.1.24-10.38-4.6-7.77-6.79-8-5-.79,1.62-.22,2.68a12.15,12.15,0,0,0,2.76,3.52,37.85,37.85,0,0,1,3.8,3.7,59.63,59.63,0,0,1,4.38,4.75c.57.91,0,.74,3,1.87s7,2,7.43,2.13a7.29,7.29,0,0,1,1.88,2.74c.57,1.22-14.53.09-16.63,0s-3.28-.68-4.21.49-8.19,4-1.32,4.76,14.34,1.86,14.34,1.86,1.51-.55,4.15,1.61,5.31,3.43,6.48,4.66,4.06,5.2,4.06,5.2l-.44,5.68s-2.78,3.22-4,3.49-.24-2.1-1.2.27-4,4.39.17,5.09a75.54,75.54,0,0,0,9.87.85l3,.08a6.86,6.86,0,0,1,1.4,3.93c-.05,2.09.25,2.1.18,4.8s-1.55,2.06-1.6,3.85,11.46,9,11.46,9,.93-1.17-.05,2.1-1.36,6.26-5.55,6.15-6.46,6.73-10.48-.26-9-10.42-12.3-11.4-8.68-.22-10.71-3-5.52-6.73-8.14-9.79-8.22-6.8-9.94-9.84-3.49-4.88-7-8.27-3-1.27-6.74-5.57S3951.39,975,3944.78,968s-12.64-5.91-12.64-5.91-3.2-.08-.12,4.78,5.8,7.75,7.77,9,6.69,3.76,8.62,6.6,3.47,4.89,3.47,4.89l.34,2.41-4.84,1.46s-3.18-.08-2,2,9.07,4.63,10.66,5.07,4.75,1.71,4.75,1.71l5.07,4.92-.5,4-.08,3.19a42.75,42.75,0,0,1-8.41,1c-3.6-.09-5.21.28-7.19-.18a42.39,42.39,0,0,0-6-.55l-1.65,2s.35,2,6.33,2.57a107.08,107.08,0,0,0,10.77.66l10.78.27c2,.05,4.8-.27,5.54,1.74s3.5,3.69,1.49,4.83-7.72,4.6-13.71,4.45l-6-.15s-2.9,4.32,1.49,4.43,1.19.43,8,.2,8.81-.16,10-.13,4.35,1.7,4.35,1.7a8.2,8.2,0,0,1,.72,3.21c0,1.6-.88,3.17-4.52,4.68s-10.54,6.52-6.95,6.61l18.36.46,5.19.13c3.59.1,3.76-6.29,4.79.13s-1.32,4.76,1,8.82,13.3,11.51,13.3,11.51-29.39,1.27-33.75,7.75l-4.36,6.48s-.68,3.58,4.1,3.7,12.61-.88,15.58.39,14.37.37,14.37.37a5.15,5.15,0,0,0,4.71,3.11c3.59.09,10.75,1.47,12.49,3.91l5.21,7.32s3-1.71,4.79.13,9.49,3.83,11.85,5.09-8.68,11.77-8.68,11.77c13.69,3.34,10.82-1.53,13.69,3.34s2.28,4.85,2.8,7.86-16.33,6.18-18.13,6.13-4.78-.72-6.59-.17.68-3-1.81.56c-1.34,1.9-1.06,1.59-1,1.55l-1.48,2c-3.1,4.12-1.17-1.23-3.1,4.12s-.19,7.18-2.05,9.53a19.24,19.24,0,0,1-4.89,4.07s-1.9,4.15-3.71,4.7-3.54-2.48-8.47,2.78-9.13,5.77-9.24,10-12.74,6.27.36,9.59,15.08-3.8,16.91-5,3.63-1.46,5.83,6.27,3.35,9.54,7.53,10.25,6,.15,7.79.2-8.33-2.69,7.18.44,15.42,6.12,20.21,6.24,4.23-1.09,9,.23,8.81,6.81,8.81,6.81-5.46,10.24-6.4,16.21-1.4,8-.22,8.38,11.49,3.9-.89,3.58-9.12-2.63-18.76-.47-21.63,2.25-25.23,2.16-9.13-1.83-13.17-.33-34.77.32-36.73-.93-8.37-.62-11.88-3.9-1.53-2.84-13-7.12-10.71-3.06-22.6-7-17.47-4.45-28.11-10.3-12.09-11.5-19.62-14.08-14.08-11.94-11.11-2.68,16.6,22.4,17.76,24,3.91,3.69,3.87,5.29-.88,3.18-1.34,5.56-4.08,2.69-.58,6.78,6.65,5.75,10.22,6.65-1.11-3.23,7.59.19,10.73,2.27,11.06,5.08.37,1.2-.13,5.18,1.43,6.44,5.41,6.93-1.15-2,6.79.17,10.6,7.46,9.77,8.64-18,.74-22.44,2.63-6.82,1-5.69,3.85,4.34,2.51,6.3,3.75,8-1.39,9.58.25,14.31,2.75,14.31,2.75,1.14,2.44,5.46,5.34-6.85,2.22,11.92,2.69,18.73,2.12,20.75.56,3.22-.48,5.18.84,22.45,13,25.59,14.7-8.37-.63,5.53,2.93,17.59-.36,29.54.74,23.36-7.41,28.77-.07,12.2,7.1,14.16,8.74a20.8,20.8,0,0,1,3.49,4.1s-35,7.9-51.36,8.68-58.78,2.5-66,1.93-18.79.72-28.21-5.9-15.74-9.2-22-13.75-47.86-19.18-51.4-21.27-22.43-13.75-25.11-18.22-10.31-19-11.24-13.86-1.43,9.15-.26,10.38,3.15,2.07,4.65,5.71,4.52,10.9,5.66,13.32,2.31,3.26,1.08,4.42-.08,3.2-4,2.3-10.36-1.07-11.55-1.28-3.81.69-3.81.69l-.06,2.4c0,.4,1.94,1.84,3.35,1.88s4,.3,5,.33,5.38.53,6.18.55,15.47,4.39,15.47,4.39l3.39.48s-4.38,7.29-6.8,8-7,2-8.44,2l-6.19-.16c-1,0-2-.45-2.79.12l-.82.58-.9,3.58s-.22,1,1.18,1,4.42-.89,5.83-1,7.78,0,7.78,0,7.43-1.82,9.45-2.56,4.07-3.09,4.69-3.68,4-1.49,4.64-1.48.17,8.59-1.26,9.36-.4.79-2.82,1.52-2.8.13-3.83,1.1-1.24,1.57-1.85,2-.07,2.79.94,3,.69,3.71,4.15,1.35,9-6.61,9-6.61,0,.8,1.61-.56a48.66,48.66,0,0,1,4.47-3.07s1.42-.77,1.39.43,1.75,2-2.32,4.74-10.86,10.9-12.14,14.06a25.71,25.71,0,0,0-1.28,3.17c-.65,2-2,2-.68,3.17s2.54,2.67,3.53,2.69,3.28-3.3,7-6.62,11.59-8.09,12.62-9.06a24.34,24.34,0,0,1,2.85-2.32c.81-.59-2.81,8.52-6.5,12.41s-7.33,5.42-3.83,9.1l2.55,2.68c-22.72,5.66-34.91,14.34-63.86,23-40,12-60,20-104,40s-124,72-172,97.44-68,22.56-140,58.56-48-4-92,0-80,12-108,21.5-104,34.5-168,70.5-217,86.83-217,86.83c-12.84,46.82,21.71,85.66,80.29,117.24H0v154.93H5000V1870.94Zm581.83-566.07c1.31.48,7.44,1.51,9.62,2,1,.22,2.79.56,5.1,1.07-6.57-.43-12.71-.88-18.54-1.23a12,12,0,0,1-1-2.41C4521.7,1297.22,4527.23,1304.4,4528.54,1304.87Zm-29.78-5.15c.95-3.06,2.62.51,5.66,2.35s5.26,1,8.3,2.4a6.84,6.84,0,0,1,2.41,1.76c-5.55-.21-10.86-.27-16.06-.08A7.74,7.74,0,0,1,4498.76,1299.72Zm88.48-342c.39-2.17.78-4.51,3-5.63s1.87-2.3,4.4-2.24,3.29,3.61,5.54,7.19,3.81,14.85,1.14,14.79a6.11,6.11,0,0,1-5.63-3c-1.77-2.73-3.06-4.94-4.87-6.33S4586.85,959.87,4587.24,957.7Zm-11.48,20c2.28-1.74,3.2-2.61,5.43-2.56s4.88,1.92,6.21,2.4,6.51,7.77,8.69,10.06.77,5.67,4.26,8.61c4.38,3.69-4.12,3.48-7.22,2.5s-4-.54-8.89-2.46-1.74-1.83-2.59-3.64-4.83-3.7-7-5.55-2.61-2.75-2.56-5S4573.48,979.39,4575.76,977.66Zm-6.65,15.49c1.4-2.65,0,0,1.78,0s2.64,1.85,3.93,4.13,4.83,3.7,6.57,5.53c0,0,2.52,6.33,1.55,9.44s-4.16,5.26-7.79,7.41-3.12-.53-4.43-1.91.08-3.13,1-5.79a11.39,11.39,0,0,0,1-5.34c.07-2.68-2.13-4.08-3.87-6.36S4567.7,995.79,4569.11,993.15Zm-53,24.6c.08-3.12,5.45-3,6.78-2.51s2.6,3.2,4.35,5,4.39,3.25,9.66,7,3.51,2.77,5.23,5.5-.59,8.68.2,9.85c15.1,22.31-6.62,14.15-6.62,14.15s-1.71-3.17-1.66-5a9.3,9.3,0,0,0-.81-3.6s-7.44-6.45-10.07-8.76a30.73,30.73,0,0,1-6.47-9.56C4515.88,1027.6,4516.05,1020.89,4516.13,1017.75ZM4241.26,247.44c1.56-1.81,6.42-1.69,9.27-1.62s2.14,1.13.75,3.71c-1.2,2.22,1.09,5.07,1.09,5.07a19.14,19.14,0,0,0-.79,2.83c-.38,1.84-1.2,1.14-2.23,2s-3,.93-5.55.7,0,0-.65-.86-.12-2-.94-2.87-2-.9-2.64-1.41-.8-1.87-.94-2.71S4239.71,249.24,4241.26,247.44Zm-46.45,18.81c-3.36.36-6.7-.17-9.16-.23s-7,1.61-13.37-2.13a15.36,15.36,0,0,1-1.93-3.4c-.41-1.36-2.14-3.86-2.34-4.76s-1.1-.92,1.18-2.43,1.64-3.09,3.39-1.48l1.75,1.61a9.17,9.17,0,0,0,2.18,2.29,31.36,31.36,0,0,0,3.3,2c.67.34,1.79.37,5.12,1.34s4.67,1,6,2.17,2.39,2.74,3.28,3.21,1.14-.86.88.47S4198.18,265.89,4194.81,266.25Zm-26.3,137.82c-1.09,3.32-3.39,1.25-8.4-.22S4155,394.66,4156,393s-.58-3.7.2-8.05,1.34,0,2.35.06l6,.15c3.69.1,3.19,6.46,4.46,7.5s.65,2.7-.42,5S4169.6,400.74,4168.51,404.07Zm13.23,20.8c-.73,2.33-.69,1-1.76,3.31s-1.73,2.31-3.45,3.68-1.91.55-2.67,3.88-1,.54-3.37.48-.55-4.38-.53-5.38a28.53,28.53,0,0,0,.72-6.25c.29-5.7,2.88-7.64,2.92-9.32a70.25,70.25,0,0,1,.52-7.37c.43-3.68,2.62.07,2.62.07a30,30,0,0,1,4.38,1.78c3,1.42,1.26,3.39,1.86,7.1S4182.47,422.54,4181.74,424.87ZM4196.41,384c-.59,1.92.05,2.95-2,3.9s-3.09,2.94-5.4,1.21-2-1.73-4.29-2.79-.18-6.05,4.51-5.93c2.38.06,3.74-1.92,4.7.12S4197,382.12,4196.41,384Zm-8.67-10.36c.52-.92.41-3,2.45-4.3s3.07-1.6,4.4-1.57,4.05-.57,5.71.15,4,1.77,4,1.77,1.6,3.07,1.56,4.41.59,3.37-3.78,3.93S4185.28,378,4187.74,373.68Zm-80.13,113.83-5.47,3.89-1.38,1.76.36,3.14s.38,2.69-.55,4-3.23,3.95-5.92,4.33a41.5,41.5,0,0,1-6.72.27c-1.34,0-1.93,5.32-3.58-.09s1.23-13.39,1.23-13.39c8.61-4.25,11.8-6.41,13.18-7.72s3.66-3.49,5.45-3.44l6.26.16,3.06,2.76S4109.43,486.22,4107.61,487.51Zm-11.55,311.76c-6.6-7.36-9.32-10.62-9.32-10.62s-.24-6.4-1-8-22.28-3.37-29.46-3.55-10.14,5.34-14.78-.37-2.7-4.07-6.18-8.55c-1.91-2.47-3.74-8.44-5.65-13.73a18.69,18.69,0,0,0,1.63-1.15c6.53-5,11.42-8.9,11.42-8.9s-4-1.7,2.85-2.33,9.14,2.23,9.09,4.23,1.57.83-.11,4.39-2.49,3.47-2.93,4.89-2.39-.23-.43,1.42,13.18.33,13.18.33,1.16,1.06,2,.76.25-10.28.79-.29,2.92,11.26,4.1,12.09,7.68-3.8,7.68-3.8.88-3.18,3.65-2.3,7.43,6.67,7.43,6.67,10.19,7.75,13,7.82,4.46-3.07,6.38.16-.78-.81,2.17,9.25,4.91,10.91,5.68,12.13,3.15,2.08,4.34,2.5-4.28-7.29,4.66,3.72,23,9.37,25.29,12.23a68.69,68.69,0,0,1,5.28,8.55c-.94-.48-2.77-.9-6.27-1-8.79-.22-18-.06-21.48-3.74s.14-5.59-10.12-10.25-9.89-4.23-13.82-6.73S4102.67,806.62,4096.06,799.27ZM4030,965.8a12.88,12.88,0,0,1-1.22-1.64c-1.91-3.25-3.87-4.89-4.22-6.9s-1.13-2.43-1.06-5.22c0-1.47-1.21-4.69-2.37-7.76,6.22,3,14.16,1.6,15.66,3.44s3.1,3.94,3.1,3.94S4053.15,963.58,4053,968s-7.22,1.4-12-.3A43.09,43.09,0,0,0,4030,965.8Zm45.67,55.87c-3.23,1.13-6,.25-8-.2s-1.52-2.83-4.24-6.1-7.71-11-6.87-12.55,1-6.38-1.44-6.44l-2.4-.06-2.77-.86-.3-3.6s-4,.69-5.26,2.26a24.59,24.59,0,0,0-2.52,4.74c-4.16-8.91-4.07-12.5-4.07-12.5l.06-2.4s-.31-3.6-.28-4.8-.85,2-1.51-3.63a12.14,12.14,0,0,0-3.36-6.8,5.38,5.38,0,0,1,2.71,1.15c3.92,2.94,5.55,1.78,7.51,3.42s-.15,5.6,8.15,9.4,12.3,3.1,12.26,4.71a8,8,0,0,0,1.09,4.41c.77,1.22,2.31,3.26,2.27,4.85s-.09,3.6.68,4.82a16.57,16.57,0,0,0,2.32,3.26c1.17,1.22,5.1,3.32,6.23,6.15s1.51,3.24,1.44,6S4078.88,1020.55,4075.66,1021.67Z"/></g></g></svg>